<?xml version="1.0" encoding="UTF-8"?>
<svg id="_레이어_1" data-name="레이어 1" xmlns="http://www.w3.org/2000/svg" xmlns:xlink="http://www.w3.org/1999/xlink" viewBox="0 0 390 170">
  <defs>
    <style>
      .cls-1 {
        stroke: #211c33;
        stroke-linecap: round;
        stroke-linejoin: round;
        stroke-width: .37px;
      }

      .cls-1, .cls-2 {
        fill: none;
      }

      .cls-3 {
        clip-path: url(#clippath);
      }

      .cls-2, .cls-4, .cls-5, .cls-6, .cls-7, .cls-8, .cls-9, .cls-10, .cls-11, .cls-12, .cls-13, .cls-14, .cls-15, .cls-16, .cls-17, .cls-18, .cls-19, .cls-20, .cls-21, .cls-22, .cls-23, .cls-24, .cls-25, .cls-26, .cls-27, .cls-28, .cls-29, .cls-30, .cls-31, .cls-32, .cls-33, .cls-34, .cls-35, .cls-36, .cls-37, .cls-38, .cls-39, .cls-40, .cls-41, .cls-42, .cls-43, .cls-44, .cls-45, .cls-46, .cls-47, .cls-48, .cls-49, .cls-50, .cls-51, .cls-52, .cls-53, .cls-54, .cls-55, .cls-56, .cls-57, .cls-58, .cls-59, .cls-60, .cls-61, .cls-62, .cls-63, .cls-64 {
        stroke-width: 0px;
      }

      .cls-65 {
        fill: #fbb03b;
        font-size: 12px;
      }

      .cls-65, .cls-66 {
        font-family: AppleSDGothicNeo-SemiBold-KSCpc-EUC-H, 'Apple SD Gothic Neo';
        font-weight: 600;
      }

      .cls-4 {
        fill: url(#_무제_그라디언트_416-2);
      }

      .cls-5 {
        fill: url(#_무제_그라디언트_416-5);
      }

      .cls-6 {
        fill: url(#_무제_그라디언트_416-4);
      }

      .cls-7 {
        fill: url(#_무제_그라디언트_416-3);
      }

      .cls-8 {
        fill: url(#_무제_그라디언트_493-2);
      }

      .cls-9 {
        fill: url(#_무제_그라디언트_335-2);
      }

      .cls-10 {
        fill: url(#_무제_그라디언트_222-3);
      }

      .cls-11 {
        fill: url(#_무제_그라디언트_222-2);
      }

      .cls-12 {
        fill: url(#_무제_그라디언트_222-5);
      }

      .cls-13 {
        fill: url(#_무제_그라디언트_222-4);
      }

      .cls-14 {
        fill: url(#_무제_그라디언트_222-6);
      }

      .cls-15 {
        fill: url(#_무제_그라디언트_445-2);
      }

      .cls-16 {
        fill: url(#_무제_그라디언트_445);
      }

      .cls-17 {
        fill: url(#_무제_그라디언트_493);
      }

      .cls-18 {
        fill: url(#_무제_그라디언트_416);
      }

      .cls-19 {
        fill: url(#_무제_그라디언트_422);
      }

      .cls-20 {
        fill: url(#_무제_그라디언트_344);
      }

      .cls-21 {
        fill: url(#_무제_그라디언트_345);
      }

      .cls-22 {
        fill: url(#_무제_그라디언트_346);
      }

      .cls-23 {
        fill: url(#_무제_그라디언트_338);
      }

      .cls-24 {
        fill: url(#_무제_그라디언트_335);
      }

      .cls-25 {
        fill: url(#_무제_그라디언트_350);
      }

      .cls-26 {
        fill: url(#_무제_그라디언트_222);
      }

      .cls-67 {
        font-family: AppleSDGothicNeo-Bold-KSCpc-EUC-H, 'Apple SD Gothic Neo';
        font-weight: 700;
      }

      .cls-27 {
        fill: url(#_무제_그라디언트_68);
      }

      .cls-28 {
        fill: url(#_무제_그라디언트_70);
      }

      .cls-29 {
        fill: url(#_무제_그라디언트_72);
      }

      .cls-68 {
        font-size: 25.55px;
      }

      .cls-68, .cls-53 {
        fill: #fff;
      }

      .cls-31 {
        fill: #f9ca9b;
      }

      .cls-32 {
        fill: #f9b800;
      }

      .cls-33 {
        fill: #2c2c38;
      }

      .cls-34 {
        fill: #89511f;
      }

      .cls-35 {
        fill: #a0f2f0;
      }

      .cls-36 {
        fill: #0d9bbc;
      }

      .cls-37 {
        fill: #0ca337;
      }

      .cls-38 {
        fill: #216975;
      }

      .cls-39 {
        fill: #15cdff;
      }

      .cls-40 {
        fill: #0fe84c;
      }

      .cls-41 {
        fill: #ccc;
      }

      .cls-42 {
        fill: #dae9a0;
      }

      .cls-43 {
        fill: #d13333;
      }

      .cls-44 {
        fill: #9f2e2e;
      }

      .cls-45 {
        fill: #b9ea42;
      }

      .cls-46 {
        fill: #7d6eed;
      }

      .cls-47 {
        fill: #9fb73d;
      }

      .cls-48 {
        fill: #ff7936;
      }

      .cls-49 {
        fill: #fec538;
      }

      .cls-50 {
        fill: #ffd8d2;
      }

      .cls-51 {
        fill: #f15941;
      }

      .cls-52 {
        fill: #ffe448;
      }

      .cls-54 {
        fill: #fffffd;
      }

      .cls-55 {
        fill: #ea6060;
      }

      .cls-56 {
        fill: #f15d43;
      }

      .cls-57 {
        fill: #f15a24;
      }

      .cls-58 {
        fill: #ed6e6e;
      }

      .cls-59 {
        fill: #f5ede2;
      }

      .cls-60 {
        fill: #f48484;
      }

      .cls-61 {
        fill: #f72919;
      }

      .cls-62 {
        fill: #ffdf1d;
      }

      .cls-63 {
        fill: #03bb47;
      }

      .cls-64 {
        fill: #038f4a;
      }
    </style>
    <linearGradient id="_무제_그라디언트_70" data-name="무제 그라디언트 70" x1="195" y1="170.09" x2="195" y2="0" gradientUnits="userSpaceOnUse">
      <stop offset="0" stop-color="#2e3a79"/>
      <stop offset=".34" stop-color="#292e5e"/>
      <stop offset=".81" stop-color="#211c33"/>
    </linearGradient>
    <clipPath id="clippath">
      <rect class="cls-2" width="390" height="170.09"/>
    </clipPath>
    <radialGradient id="_무제_그라디언트_68" data-name="무제 그라디언트 68" cx="321.38" cy="43.25" fx="321.38" fy="43.25" r="184.68" gradientUnits="userSpaceOnUse">
      <stop offset="0" stop-color="#f7ac1e"/>
      <stop offset=".23" stop-color="#c68b26" stop-opacity=".76"/>
      <stop offset=".77" stop-color="#5c4238" stop-opacity=".22"/>
      <stop offset="1" stop-color="#322540" stop-opacity="0"/>
    </radialGradient>
    <linearGradient id="_무제_그라디언트_493" data-name="무제 그라디언트 493" x1="-1489.55" y1="171.35" x2="-1489.55" y2="85.52" gradientTransform="translate(-1266.68) rotate(-180) scale(1 -1)" gradientUnits="userSpaceOnUse">
      <stop offset="0" stop-color="#2e3a79"/>
      <stop offset=".03" stop-color="#2c3671"/>
      <stop offset=".13" stop-color="#282d5a"/>
      <stop offset=".24" stop-color="#252548"/>
      <stop offset=".38" stop-color="#221f3c"/>
      <stop offset=".57" stop-color="#211c35"/>
      <stop offset="1" stop-color="#211c33"/>
    </linearGradient>
    <linearGradient id="_무제_그라디언트_422" data-name="무제 그라디언트 422" x1="-1375.21" y1="42.6" x2="-1265.23" y2="42.6" gradientTransform="translate(-1014.61) rotate(-180) scale(1 -1)" gradientUnits="userSpaceOnUse">
      <stop offset="0" stop-color="#333"/>
      <stop offset=".07" stop-color="#303033"/>
      <stop offset=".58" stop-color="#252133"/>
      <stop offset="1" stop-color="#211c33"/>
    </linearGradient>
    <linearGradient id="_무제_그라디언트_338" data-name="무제 그라디언트 338" x1="-1265.23" y1="81.73" x2="-1310.97" y2="81.73" gradientTransform="translate(-1014.61) rotate(-180) scale(1 -1)" gradientUnits="userSpaceOnUse">
      <stop offset="0" stop-color="#000"/>
      <stop offset=".1" stop-color="#08060c"/>
      <stop offset=".32" stop-color="#151221"/>
      <stop offset=".53" stop-color="#1e192e"/>
      <stop offset=".73" stop-color="#211c33"/>
    </linearGradient>
    <linearGradient id="_무제_그라디언트_445" data-name="무제 그라디언트 445" x1="-1395.11" y1="56.7" x2="-1415.56" y2="56.7" gradientTransform="translate(1776.13)" gradientUnits="userSpaceOnUse">
      <stop offset="0" stop-color="#3b3739"/>
      <stop offset=".24" stop-color="#353133"/>
      <stop offset=".54" stop-color="#252224"/>
      <stop offset=".88" stop-color="#0b0a0a"/>
      <stop offset="1" stop-color="#000"/>
    </linearGradient>
    <linearGradient id="_무제_그라디언트_445-2" data-name="무제 그라디언트 445" y1="67.88" x2="-1415.56" y2="67.88" xlink:href="#_무제_그라디언트_445"/>
    <linearGradient id="_무제_그라디언트_416" data-name="무제 그라디언트 416" x1="225.33" y1="73.67" x2="250.61" y2="73.67" gradientUnits="userSpaceOnUse">
      <stop offset="0" stop-color="#000"/>
      <stop offset=".26" stop-color="#030305"/>
      <stop offset=".59" stop-color="#0e0b15"/>
      <stop offset=".96" stop-color="#1f1a2f"/>
      <stop offset="1" stop-color="#211c33"/>
    </linearGradient>
    <linearGradient id="_무제_그라디언트_416-2" data-name="무제 그라디언트 416" x1="224.95" y1="74.06" x2="250.24" y2="74.06" xlink:href="#_무제_그라디언트_416"/>
    <linearGradient id="_무제_그라디언트_416-3" data-name="무제 그라디언트 416" x1="296.36" y1="96.02" x2="299.81" y2="96.02" xlink:href="#_무제_그라디언트_416"/>
    <linearGradient id="_무제_그라디언트_416-4" data-name="무제 그라디언트 416" x1="294.64" y1="96.02" x2="298.08" y2="96.02" xlink:href="#_무제_그라디언트_416"/>
    <linearGradient id="_무제_그라디언트_346" data-name="무제 그라디언트 346" x1="298.08" y1="103.17" x2="299.81" y2="103.17" gradientUnits="userSpaceOnUse">
      <stop offset="0" stop-color="#000"/>
      <stop offset=".02" stop-color="#07050d"/>
      <stop offset=".08" stop-color="#161227"/>
      <stop offset=".14" stop-color="#221c3d"/>
      <stop offset=".21" stop-color="#2b234e"/>
      <stop offset=".3" stop-color="#32295a"/>
      <stop offset=".43" stop-color="#352c61"/>
      <stop offset=".78" stop-color="#372d63"/>
    </linearGradient>
    <linearGradient id="_무제_그라디언트_493-2" data-name="무제 그라디언트 493" x1="297.22" y1="74.1" x2="297.22" y2="59.81" gradientTransform="matrix(1,0,0,1,0,0)" xlink:href="#_무제_그라디언트_493"/>
    <linearGradient id="_무제_그라디언트_416-5" data-name="무제 그라디언트 416" x1="250.24" y1="73.49" x2="250.61" y2="73.49" xlink:href="#_무제_그라디언트_416"/>
    <linearGradient id="_무제_그라디언트_72" data-name="무제 그라디언트 72" x1="237.78" y1="44.59" x2="237.78" y2="45.04" gradientUnits="userSpaceOnUse">
      <stop offset="0" stop-color="#000"/>
      <stop offset=".12" stop-color="#09080f"/>
      <stop offset=".32" stop-color="#161323"/>
      <stop offset=".53" stop-color="#1e192f"/>
      <stop offset=".74" stop-color="#211c33"/>
    </linearGradient>
    <linearGradient id="_무제_그라디언트_344" data-name="무제 그라디언트 344" x1="272.63" y1="85.77" x2="272.63" y2="118.17" gradientUnits="userSpaceOnUse">
      <stop offset="0" stop-color="#000"/>
      <stop offset=".15" stop-color="#08070d"/>
      <stop offset=".44" stop-color="#161222"/>
      <stop offset=".73" stop-color="#1e192e"/>
      <stop offset="1" stop-color="#211c33"/>
    </linearGradient>
    <linearGradient id="_무제_그라디언트_350" data-name="무제 그라디언트 350" x1="259.25" y1="116.9" x2="286.07" y2="101.41" gradientUnits="userSpaceOnUse">
      <stop offset="0" stop-color="#000"/>
      <stop offset=".05" stop-color="#06050b"/>
      <stop offset=".22" stop-color="#17132a"/>
      <stop offset=".39" stop-color="#251e43"/>
      <stop offset=".58" stop-color="#2f2655"/>
      <stop offset=".77" stop-color="#352b5f"/>
      <stop offset="1" stop-color="#372d63"/>
    </linearGradient>
    <linearGradient id="_무제_그라디언트_345" data-name="무제 그라디언트 345" x1="258.95" y1="60.85" x2="287.46" y2="44.39" gradientUnits="userSpaceOnUse">
      <stop offset="0" stop-color="#000"/>
      <stop offset=".02" stop-color="#07050d"/>
      <stop offset=".08" stop-color="#161227"/>
      <stop offset=".15" stop-color="#221c3d"/>
      <stop offset=".23" stop-color="#2b234e"/>
      <stop offset=".33" stop-color="#32295a"/>
      <stop offset=".47" stop-color="#352c61"/>
      <stop offset=".85" stop-color="#372d63"/>
    </linearGradient>
    <linearGradient id="_무제_그라디언트_222" data-name="무제 그라디언트 222" x1="204.98" y1="115.13" x2="204.98" y2="97.26" gradientUnits="userSpaceOnUse">
      <stop offset="0" stop-color="#c69c6d"/>
      <stop offset="1" stop-color="#2b244b"/>
    </linearGradient>
    <linearGradient id="_무제_그라디언트_222-2" data-name="무제 그라디언트 222" x1="2114.78" y1="115.13" x2="2114.78" y2="97.26" gradientTransform="translate(2347.72) rotate(-180) scale(1 -1)" xlink:href="#_무제_그라디언트_222"/>
    <linearGradient id="_무제_그라디언트_335" data-name="무제 그라디언트 335" x1="205" y1="115.18" x2="205" y2="53.61" gradientUnits="userSpaceOnUse">
      <stop offset="0" stop-color="#fff" stop-opacity=".2"/>
      <stop offset=".28" stop-color="#e9ebf1" stop-opacity=".19"/>
      <stop offset=".6" stop-color="#abb0c9" stop-opacity=".16"/>
      <stop offset=".94" stop-color="#455088" stop-opacity=".11"/>
      <stop offset="1" stop-color="#2e3a79" stop-opacity=".1"/>
    </linearGradient>
    <linearGradient id="_무제_그라디언트_335-2" data-name="무제 그라디언트 335" x1="-1257.29" y1="115.18" x2="-1257.29" y2="53.61" gradientTransform="translate(-1024.33) rotate(-180) scale(1 -1)" xlink:href="#_무제_그라디언트_335"/>
    <linearGradient id="_무제_그라디언트_222-3" data-name="무제 그라디언트 222" x1="218.97" y1="127.09" x2="246.9" y2="127.09" xlink:href="#_무제_그라디언트_222"/>
    <linearGradient id="_무제_그라디언트_222-4" data-name="무제 그라디언트 222" x1="202.36" y1="145.71" x2="207.59" y2="108.46" xlink:href="#_무제_그라디언트_222"/>
    <linearGradient id="_무제_그라디언트_222-5" data-name="무제 그라디언트 222" x1="238.37" y1="121.3" x2="238.37" y2="106.13" xlink:href="#_무제_그라디언트_222"/>
    <linearGradient id="_무제_그라디언트_222-6" data-name="무제 그라디언트 222" x1="2132.05" y1="119.97" x2="2130.29" y2="107.44" gradientTransform="translate(2330.63) rotate(-180) scale(1 -1)" xlink:href="#_무제_그라디언트_222"/>
  </defs>
  <rect class="cls-28" width="390" height="170.09"/>
  <g class="cls-3">
    <circle class="cls-27" cx="321.38" cy="43.25" r="184.68"/>
  </g>
  <text class="cls-68" transform="translate(23.89 64.97) scale(.93 1)"><tspan class="cls-66"><tspan x="0" y="0">내일 오전 도착</tspan></tspan><tspan class="cls-67"><tspan x="0" y="35.74">슛배송 !</tspan></tspan></text>
  <text class="cls-65" transform="translate(23.89 129.92) scale(.93 1)"><tspan x="0" y="0">슛배송 자세히보기</tspan></text>
  <polygon class="cls-17" points="178.75 171.35 70.75 171.17 326.68 85.52 374.99 99.94 178.75 171.35"/>
  <polygon class="cls-19" points="250.61 44.65 296.36 59.81 360.6 39.74 316.86 25.4 250.61 44.65"/>
  <polygon class="cls-23" points="250.62 101.95 296.36 118.8 296.36 59.81 250.61 44.65 250.62 101.95"/>
  <ellipse class="cls-30" cx="313.7" cy="110.89" rx="6.7" ry="6.82"/>
  <polygon class="cls-30" points="296.36 118.8 360.6 96.87 360.6 39.74 296.36 59.81 296.36 118.8"/>
  <g>
    <g>
      <path class="cls-53" d="m301.36,69.46l2.67-.8c.3-.09.57-.11.83-.06.26.05.49.14.69.3.2.15.35.35.47.61.11.25.17.54.18.87,0,.42-.09.84-.27,1.25-.19.41-.43.77-.74,1.08.27-.05.53-.03.76.04.23.07.44.19.62.35.18.16.31.37.42.61.1.25.16.53.16.84,0,.34-.05.68-.17,1.01-.11.33-.27.64-.47.92s-.43.53-.7.74c-.27.21-.56.37-.87.46l-2.74.82-.84.25v-9.28Zm.83.12v4s1.49-.44,1.49-.44c.25-.07.48-.2.71-.37.22-.17.41-.37.57-.6.16-.23.29-.48.38-.75.09-.27.14-.55.14-.82,0-.27-.05-.52-.15-.72s-.23-.38-.39-.51c-.16-.13-.35-.22-.57-.26-.22-.04-.45-.02-.7.05l-1.47.44Zm0,4.38v4.09s2.26-.67,2.26-.67c.27-.08.52-.21.77-.38.24-.17.45-.38.63-.61.18-.23.32-.49.42-.77.1-.28.15-.57.15-.86,0-.3-.06-.55-.17-.77-.11-.22-.25-.39-.43-.52-.18-.13-.39-.21-.63-.24-.24-.03-.5,0-.76.07l-2.23.67Z"/>
      <path class="cls-53" d="m314.48,74.81l-1.05.31c-.51-1.22-2.4-5.79-2.89-6.98l-2.79,8.68-.37.11,3.29-10.27.37-.11c.56,1.36,1.13,2.73,1.7,4.09.57,1.37,1.15,2.76,1.74,4.16Z"/>
      <path class="cls-53" d="m319.01,65.88c-.02-.07-.27-.46-.66-.67-.13-.07-.49-.32-1.33-.04-.3.1-1.36.68-1.36,1.66,0,.13.08.55.35.81.48.46,1.49.58,2,.74.5.14.99.34,1.29.61.34.3.49.62.6.99.11.37.13.76.06,1.17-.07.41-.21.81-.44,1.18-.22.38-.84,1.29-2.14,1.65-.21.06-.84.19-1.46-.01-.73-.24-1.18-.87-1.34-1.2l.4-.12s.27.47.63.7c.77.48,1.35.37,1.71.27,1.28-.35,1.77-1.46,1.87-1.87.1-.41.05-.82-.09-1.22-.14-.4-.52-1.03-1.85-1.35-.31-.07-1.46-.44-1.68-.59-.22-.15-.83-.49-.71-1.52.18-1.47,1.63-2.09,1.94-2.21.67-.25,1.11-.18,1.29-.14.54.1.8.37.89.54l.02.63Z"/>
      <path class="cls-53" d="m321.67,69.92l.1,2.72-.84.25-.33-9.2.83-.25.22,5.83,3.59-6.97.42-.13-3.99,7.74Z"/>
      <path class="cls-53" d="m326.81,61.84l4.34-1.3.02.36-3.65,1.09.2,4,2.84-.85.02.37-2.84.85.2,4.06,3.71-1.11.02.38-3.71,1.11-.84.25-.44-9.17.13-.04Z"/>
      <path class="cls-53" d="m335.69,59.18l2.74-.82.03.36-2.74.82.57,8.76-.84.25-.56-8.77-2.74.82-.02-.36,2.74-.82.83-.25Z"/>
      <path class="cls-53" d="m322.72,67.59c1.31,3.81,4.97,5.82,9.15,4.57,4.25-1.27,7.61-5.48,8.38-10.01l1.2-.36c-1.14,4.91-4.59,9.36-9.55,10.84-4.28,1.28-7.96-.74-9.39-4.57"/>
    </g>
    <g>
      <path class="cls-53" d="m302.38,65.92l-1.02.29v-1.76s1.01-.28,1.01-.28v1.76Zm-.28-1.42l-.46.13v1.24s.47-.13.47-.13v-1.24Zm1.04,1.97v-1.45s-.24.07-.24.07v1.32s-.27.08-.27.08v-2.67s.27-.08.27-.08v1.08s.24-.07.24-.07v-1.13s.28-.08.28-.08v2.86s-.27.08-.27.08Z"/>
      <path class="cls-53" d="m304.46,64.62c-.36.1-.64-.06-.64-.45,0-.38.27-.73.64-.83.37-.1.64.09.64.47s-.27.7-.64.81Zm0-1.01c-.19.05-.36.27-.35.48s.15.32.36.26c.21-.06.36-.26.35-.46,0-.21-.14-.34-.36-.28Zm-.27,2.54v-.75s1.35-.38,1.35-.38v-.23s-1.36.38-1.36.38v-.27s1.65-.46,1.65-.46v.74s-1.34.38-1.34.38v.24s1.43-.4,1.43-.4v.26s-1.72.49-1.72.49Zm1.34-1.78v-1.43s.28-.08.28-.08v1.43s-.28.08-.28.08Z"/>
      <path class="cls-53" d="m308.35,63.5c-.26.13-.63.27-1.08.4l-.26.07v-1.25s1.09-.31,1.09-.31v.26s-.81.23-.81.23v.73c.38-.1.75-.24,1.01-.37l.05.24Zm-1.07,1.76v-1.07s1.58-.45,1.58-.45v1.06s-1.58.45-1.58.45Zm1.3-1.18l-1.02.29v.55s1.03-.29,1.03-.29v-.55Zm.28-1.13v.64s-.28.08-.28.08l-.02-1.58.29-.08v.67s.37-.1.37-.1v.27s-.36.1-.36.1Z"/>
      <path class="cls-53" d="m309.34,63.55v-.26s2.22-.63,2.22-.63v.26s-2.22.63-2.22.63Zm.3,1v-.83s.28-.08.28-.08v.57s1.41-.4,1.41-.4v.26s-1.68.48-1.68.48Zm0-1.69v-.97s.27-.08.27-.08v.71s1.37-.38,1.37-.38v.26s-1.65.46-1.65.46Z"/>
      <path class="cls-53" d="m313.77,62.25c-.21-.04-.46-.23-.57-.47-.07.31-.33.69-.57.87l-.17-.21c.34-.25.59-.69.59-1.13v-.3s.28-.08.28-.08v.29c.01.44.32.7.61.73l-.16.3Zm-.89,1.38l-.02-.89.28-.08v.63s1.39-.39,1.39-.39v.26s-1.66.47-1.66.47Zm1.31-1.07l-.04-2.02.28-.08.04,2.02-.28.08Z"/>
      <path class="cls-53" d="m316.1,61.62c-.21-.04-.46-.23-.57-.47-.07.31-.32.68-.56.86l-.18-.21c.34-.25.59-.69.58-1.12v-.32s.28-.08.28-.08v.31c.02.44.32.7.6.73l-.15.3Zm-.84,1.34l-.02-.87.28-.08v.61s1.37-.38,1.37-.38v.26s-1.63.46-1.63.46Zm.82-2.04v-.26s.43-.12.43-.12v-.64s.26-.08.26-.08l.05,2.01-.28.08-.03-1.1-.44.12Z"/>
      <path class="cls-53" d="m317.13,60.4v-.25s1.38-.39,1.38-.39v.25s-1.38.39-1.38.39Zm.72.82c-.32.09-.57-.03-.57-.3s.23-.53.55-.62.56.04.57.3-.23.52-.55.61Zm-.33,1.14l-.02-.91,1.54-.43.02.9-1.54.44Zm-.06-2.72l.7-.2v.25s-.7.2-.7.2v-.25Zm.37.91c-.16.04-.29.16-.29.3s.15.18.3.14c.15-.04.29-.17.28-.3s-.14-.18-.29-.14Zm.93.8l-.99.28v.4s1-.28,1-.28v-.4Zm.25-1.14l.02.67-.28.08-.04-1.69.28-.08.02.75.35-.1v.27s-.34.1-.34.1Z"/>
    </g>
  </g>
  <ellipse class="cls-30" cx="360.32" cy="92.73" rx="6.7" ry="6.82"/>
  <polygon class="cls-53" points="324.76 27.37 368.01 41.66 360.58 43.9 360.6 39.74 323.59 27.61 324.76 27.37"/>
  <polygon class="cls-41" points="381.03 84.89 360.58 91.59 360.58 43.9 368.01 41.66 381.03 62.4 381.03 84.89"/>
  <polygon class="cls-16" points="381.03 62.4 360.58 69.07 360.58 47.21 369.68 44.33 381.03 62.4"/>
  <polygon class="cls-15" points="381.03 66.7 360.58 73.37 360.58 69.07 381.03 62.4 381.03 66.7"/>
  <polygon class="cls-18" points="225.33 102.75 250.61 101.95 250.61 44.65 225.33 44.59 225.33 102.75"/>
  <polygon class="cls-4" points="224.95 103.13 250.24 102.34 250.24 45.04 224.95 44.98 224.95 103.13"/>
  <polygon class="cls-7" points="296.36 118.8 299.81 132.24 299.81 74.1 296.36 59.81 296.36 118.8"/>
  <polygon class="cls-6" points="294.64 118.8 298.08 132.24 298.08 74.1 294.64 59.81 294.64 118.8"/>
  <rect class="cls-22" x="298.08" y="74.1" width="1.72" height="58.14"/>
  <polygon class="cls-8" points="294.64 59.81 296.36 59.81 299.81 74.1 298.08 74.1 294.64 59.81"/>
  <polygon class="cls-5" points="250.24 102.34 250.61 101.95 250.61 44.65 250.24 45.04 250.24 102.34"/>
  <polygon class="cls-29" points="224.95 44.98 225.33 44.59 250.61 44.65 250.24 45.04 224.95 44.98"/>
  <polygon class="cls-20" points="250.62 101.95 250.62 100.18 294.64 85.77 294.64 118.17 250.62 101.95"/>
  <polygon class="cls-25" points="294.64 116.25 250.62 100.18 250.62 101.95 294.64 118.17 294.64 116.25"/>
  <polygon class="cls-21" points="296.36 59.81 250.62 44.65 250.62 46.42 294.64 61.25 294.64 59.81 296.36 59.81"/>
  <g>
    <polygon class="cls-26" points="218.94 115.13 191.01 106.13 191.01 106.12 218.94 97.26 218.94 115.13"/>
    <polygon class="cls-11" points="218.97 115.13 246.9 106.13 246.9 106.12 218.97 97.26 218.97 115.13"/>
    <g>
      <polygon class="cls-24" points="218.97 115.18 191.03 106.13 191.03 53.61 218.97 67.59 218.97 115.18"/>
      <polygon class="cls-9" points="218.99 115.18 246.92 106.13 246.92 53.61 218.99 67.59 218.99 115.18"/>
    </g>
    <g>
      <g>
        <path class="cls-63" d="m238.22,96.66s3.89-7.24,12.25-9.23c5.62-1.33,8.08.66,7.72,3.5-.41,3.23-4.91,2.87-4.91,2.87,0,0,3.14,2.6,1.1,4.77-2.04,2.17-6.54.7-7.08-2.71-.54-3.41-6.67,2.13-6.67,2.13l-2.4-1.34Z"/>
        <path class="cls-1" d="m240.18,96.56s7.17-8.81,14.37-5.89"/>
        <path class="cls-1" d="m246.91,91.27s4.03,1.75,4.31,5.25"/>
      </g>
      <g>
        <path class="cls-40" d="m237.13,95.54s1.65-2.82,1.07-4.36-1.33-2.43-.36-3.62c.97-1.19,1.81-2.24,1.38-3.09-.44-.84-1.54-2.57.45-4.37,1.99-1.8,2.7-2.29,2.44-3.34s.08-2.41,2.72-3.75c3.05-1.54,3.74.43,2.86,1.95-.88,1.52-1.31,2.64-.83,3.46s1.3,1.21-.19,3.46-.63,2.84-.23,3.6.55,2.55-1.36,3.43c-1.9.88-1.13,1.89-2.41,3.14-1.74,1.7-3.24,3.15-5.53,3.49Z"/>
        <path class="cls-37" d="m229.04,100.82l.14.87s3.18-.51,6.05-3.21c2.83-2.65,4.47-5.33,6.71-9.39,1.54-2.8,2.1-7.16,2.3-9.6,0-.11-.15-.12-.16-.02-.39,2.34-1.23,6.45-2.6,9.1-2.53,4.91-5.37,8.39-8.21,10.36-2,1.38-4.23,1.89-4.23,1.89Z"/>
      </g>
      <g>
        <path class="cls-35" d="m217.13,105.96s-1.65-1.78-3.28-2.58c-1.63-.8-5.74-3.16-9.06-5.57-3.32-2.42-5.48-5.46-6.53-7.44-1.35-2.55-1.99-4.91-1.97-6.29l1.83.44-.22-1.89,9.79,8.25,9.3,14.04.12,1.04Z"/>
        <path class="cls-36" d="m207.19,87.31l3.42-.91c.19-.05.39.07.42.27l1.04,6.31-4.88-5.66Z"/>
        <path class="cls-39" d="m218.09,105.1s-1.35-1.24-2.82-4.96-3.18-8.52-7.34-12.61c-4.15-4.1-10.02-4.9-10.02-4.9,0,0,1.42,1.73,4.28,3.96.12.1.29.23.41.32.04.03-.8,1.52-1.86,2.06-1.19.61-2.83.69-2.83.69,0,0,.13.27.24.49.07.14.23.43.23.43,0,0,1.67-.06,2.89-.78s2.09-2.27,2.09-2.27c.18.15.43.36.61.52.02.01-.6,1.44-1.8,2.32-1.56,1.14-3.31,1.03-3.31,1.03,0,0,.17.28.35.55.1.16.3.43.3.43,0,0,1.94-.11,3.38-1.27.95-.76,1.85-2.38,1.89-2.34,1.6,1.48,3.51,3.72,4.88,5.56,2.07,2.79,6.39,9.41,7.82,11.11l.62-.32Z"/>
        <circle class="cls-33" cx="200.88" cy="85.73" r=".79"/>
        <path class="cls-36" d="m205.5,90.05c-.21.36-.69,1.04-1.43,1.42-.12.06-.14.22-.04.31.55.46,2.04,1.64,3.86,2.53.15.07.31-.07.26-.22-.22-.68-.83-2.19-2.35-4.06-.08-.1-.24-.09-.3.02Z"/>
        <path class="cls-38" d="m224.33,104.05s-6.58.81-8.37,7.84c0,0-1.47-2.66.34-8.03,0,0,4.86-1.24,8.03.19Z"/>
      </g>
      <g>
        <path class="cls-32" d="m230.05,101.19s1.75-2,2.47-3.72,1.23-3.01,1.22-5.13c0-1.63-1.58-3.37.39-2.95,2.3.49,3.14,3.84,1.62,6.96-1.58,3.25-2.64,4.54-4.01,5.33s-2.19-.1-1.69-.49Z"/>
        <path class="cls-32" d="m226.11,100.69s-1.24-2.08-1.52-3.99c-.28-1.88-.43-3.44.1-5.49.41-1.58,2.38-2.88.34-2.95-2.37-.08-3.84,3.03-3.37,6.46.4,2.94,1.71,4.84,2.68,6.03.99,1.23,2.23.45,1.77-.06Z"/>
        <path class="cls-63" d="m229.69,88.25c.74.11,2.02.25,2.35.03s-.96-1-1.31-1.24-.03-1.59.07-1.79-.01-.65-.74-.72c-.77-.07-.8.34-.79.65s-.04,1.25-.2,1.5-1.79.46-1.75,1.01c.03.4,1.97.5,2.37.56Z"/>
        <path class="cls-62" d="m227.56,101.86s.64-.17,1.35.18c.99.49,2.7-1.87,3.98-5.09,1.15-2.89,2.1-8.1-1.57-8.2-2.8-.07-3.58-.69-4.62-.39-1.96.56-2.6,2.84-2.37,6.79.23,3.95,1.83,6.79,3.22,6.71Z"/>
      </g>
      <g>
        <path class="cls-46" d="m233.18,68.1s-.46,1.87-1.56,3.21-3.73,1.39-5.29,1.55c-1.55.15-4.12.94-4.1,4.4.03,4.29,5.84,6.07,10.95,2.67s4.03-11.02,3.39-12.07-2.22-1.96-3.39.25Z"/>
        <path class="cls-63" d="m234.47,68.04c-.05-.12-.2-.16-.31-.09-.43.27-1.41.84-1.8.77-.51-.09-.04-.43.54-1.2s.39-1.33,1.12-1.57c.86-.28,1.24-.14,1.24-.14,0,0,.03-1.11-.47-1.6s-.52-.77-.23-.9c.93-.42,1.22.57,1.33,1.38.09.62,0,1.22,0,1.22,0,0,.92.39,1.16.89.17.35.48,2.02.97,2.88.18.32-.31.32-.83-.41-.43-.61-.61-1.38-.9-.87s-.49,1.08-.52,1.42-.3.18-.74-.62c-.26-.47-.47-.91-.58-1.16Z"/>
      </g>
      <g>
        <g>
          <path class="cls-56" d="m207.98,71.09s1.15-2.73,4.11-2.59,5.24,3.13,4.61,6.86c-.57,3.36-2.45,4.39-4.14,4.54-.2.02-.39.11-.54.25-.61.62-2.52,2.22-5.16,1.26-3.09-1.12-5.01-3.61-4.45-6.84.47-2.72,3.31-3.65,5.56-3.49Z"/>
          <path class="cls-61" d="m212.85,78.36s-3.02-4.56-3.09-5.81c-.1-1.75,1.78-3.01,3.66-2.16,2.4,1.07,3.05,5.98-.58,7.98Z"/>
          <path class="cls-61" d="m210.74,79.2s-2.35-3.98-2.89-4.79-2.02-1.29-3-.78-1.46,2.86-.04,4.55,3.63,2.84,5.93,1.02Z"/>
          <path class="cls-31" d="m212.22,73.25s0-1.37.61-1.05-.19.92-.61,1.05Z"/>
          <path class="cls-31" d="m212.85,74.14s.7-1.2,1.1-.61c.36.53-.58.72-1.1.61Z"/>
          <path class="cls-31" d="m212.9,75.34s1.01-.53,1.12,0c.12.55-.61.45-1.12,0Z"/>
          <path class="cls-31" d="m206.93,75.82s-1.18.71-1.22.02.92-.31,1.22-.02Z"/>
          <path class="cls-31" d="m206.98,76.96s-1.36-.28-1.18.42c.16.62.92.04,1.18-.42Z"/>
          <path class="cls-31" d="m208.26,78.09s-1.07.39-.76.83c.33.46.74-.14.76-.83Z"/>
        </g>
        <polygon class="cls-63" points="206.13 72.15 208.91 70.62 210.15 68.05 208.23 69.88 208.02 67.14 207.06 70.32 203.79 69.29 206.12 71.1 203.42 72.12 206.13 72.15"/>
      </g>
      <g>
        <path class="cls-48" d="m202.73,110.15c1.22.88,4.14,3.05,5.56,1.74,1.43-1.31-2.12-5.77-4.13-9.12-2.01-3.34-5.78-8.86-9.62-5.45-3.84,3.4.58,7.35,2.45,8.74,1.86,1.39,4.31,3.07,5.74,4.09Z"/>
        <path class="cls-44" d="m199.58,103.1c-.72.45-.59.74-1.79,1.43-1.12.64.55,1.12,1.78-.33.89-1.05.43-1.35.02-1.1Z"/>
        <path class="cls-44" d="m197.82,103.22c-.33.14-.41.45-1,.66-1.07.39-.12,1.31.97.14.55-.59.57-1.03.04-.8Z"/>
        <path class="cls-40" d="m193.82,96.6s-2.1-3.78-5.03-5.16c-2.93-1.38-5.11,1.73-3.22,3.77,1.33,1.43,3.3.49,4.83.71,1.26.18,3.41.69,3.41.69Z"/>
        <path class="cls-40" d="m193.16,97.21s-3.48-1.7-4.7.64c-.94,1.78,1.58,2.87,2.24,1.78s2.47-2.42,2.47-2.42Z"/>
      </g>
      <g>
        <path class="cls-64" d="m239.69,93.87s2.62.48,3.06,2.78-.05,2.49.39,4.27c.63,2.56,1.29,5.67-.5,8.26-1.67,2.42-5.81,3.64-10.12.74l7.17-16.05Z"/>
        <path class="cls-45" d="m232.97,110.14c1.77.83,5.73.97,7.52-1.76,2.04-3.11,1.1-6.13.99-7.67s1.29-6.07-1.79-6.84c-3.08-.77-4.91,3.17-5.46,4.27s-3.25,2.89-3.84,5.2c-.63,2.46.06,5.62,2.59,6.8Z"/>
        <path class="cls-34" d="m236.84,100.42s1.54,1.53,1,4.17c-.48,2.32-2.3,3.67-4.08,3.15s-2.25-3.32-1.15-5.01c1.38-2.12,2.85-2.31,4.23-2.31Z"/>
      </g>
      <g>
        <path class="cls-55" d="m209.03,96.28l-.92,2.85s-.46,1.37.97,2.38,2.94,2.4,3.55,4.03,3.65,5.57,8.27,7.35c4.63,1.79,7.66-.53,8.05-1.18.28-.46,2.56-4.94,2.56-4.94l-22.49-10.5Z"/>
        <path class="cls-60" d="m218.25,96.51c2.36.81,5.16,1.93,9.06,3.78s4.59,4.09,4.4,5.75-2.03,3.54-3.92,4.09c-1.59.46-4.95.59-8.05-1.26-3.1-1.85-3.29-3.05-4.33-4.66-.81-1.26-2.09-2.8-3.29-3.74-1.56-1.24-3.96-2.72-2.94-4.53.83-1.47,5.65-.6,9.07.58Z"/>
        <path class="cls-50" d="m217.99,96.82c2.26.78,5.2,1.94,8.93,3.71,3.73,1.77,4.47,3.79,4.28,5.37s-1.8,3.22-3.61,3.74c-1.52.44-4.66.53-7.62-1.25-2.97-1.78-3.09-2.75-4.08-4.29-.78-1.21-1.92-2.81-3.06-3.72-1.5-1.19-4.18-2.44-3.2-4.17.8-1.41,5.09-.53,8.37.6Z"/>
        <path class="cls-43" d="m216.6,97.22c1.06.32,2.59.65,3.46,1.51s.9,2.87-.23,3.79c-1.41,1.15-2.29,1.42-3.3.76-1.24-.82-2.16-2.52-3.23-3.32-1.37-1.04-3.09-1.98-3.13-2.74-.07-1.38,2.23-1.25,6.43.01Z"/>
        <path class="cls-43" d="m228.92,102.65c.77.72,1.37,1.61,1.42,2.78.07,1.5-1.84,3.04-3.28,3.29-1.44.25-4.07.27-4.13-.78-.08-1.41.08-2-.24-3.3s-.69-2.08-1.32-3.63c-.23-.55-.92-2.5.37-2.09.95.31,3.69,1.6,4.6,2.05,1.44.71,2.44,1.55,2.59,1.69Z"/>
        <path class="cls-43" d="m219.48,107.18c.48.35,1.8,1.46,2.54,1.05.47-.26.36-2.55.06-3.76-.25-1.02-.93-3.01-1.61-1.93-.32.52-1.12,1.2-1.65,1.4-.72.28-1.25.34-1.09,1.23s1.17,1.59,1.74,2Z"/>
      </g>
      <g>
        <path class="cls-59" d="m218.04,55.91s-2.23.33-2.17,3.62,1.37,4.75,2.52,5.36c1.15.61,3.77.76,5.01-1.08l-5.36-7.9Z"/>
        <path class="cls-54" d="m223.01,64.17c.9-.57,1.35-2.16.56-3.99-1.19-2.76-4.29-4.56-5.52-4.27-1.46.34-2.17,3.2-.26,6.27,1.91,3.07,4.16,2.67,5.22,1.99Z"/>
        <path class="cls-49" d="m219.69,59.49s-1.3,1.38.19,3.15c1.03,1.22,2.56.8,2.56.8,0,0,1.52-1.23.53-2.94-.92-1.59-2.63-1.43-3.29-1Z"/>
      </g>
      <g>
        <path class="cls-59" d="m226.24,51.66c1.17.41,3.21.41,4.46-2.16,1.52-3.12.51-6.4-1.19-7.05s-4.99,2.68-5.52,5.12c-.13.6-.13,3.27,2.25,4.1Z"/>
        <path class="cls-54" d="m231.05,44.17s.1,2.12-1.25,4.15-3.74,1.48-4.76.71c-.92-.69-1.04-1.47-1.04-1.47,0,0,.47-2.94,2.9-4.57,2.16-1.45,3.67-.34,4.16,1.18Z"/>
      </g>
      <g>
        <path class="cls-58" d="m200.92,104.86l.28,2.98s.12,1.44,1.84,1.81c1.71.37,3.65,1.04,4.85,2.29s5.55,3.67,10.51,3.49,6.83-3.51,6.93-4.26c.07-.53.4-5.55.4-5.55l-24.81-.76Z"/>
        <path class="cls-60" d="m209.48,101.43c2.48-.18,5.5-.27,9.81-.11,4.31.16,5.83,1.95,6.31,3.54s-.47,4.06-1.98,5.31c-1.28,1.05-4.32,2.5-7.89,2.02s-4.23-1.5-5.81-2.57c-1.25-.84-3.02-1.74-4.5-2.14-1.93-.52-4.72-.93-4.49-3,.18-1.68,4.95-2.78,8.56-3.05Z"/>
        <path class="cls-50" d="m209.37,101.81c2.38-.18,5.54-.28,9.67-.12s5.6,1.71,6.06,3.24-.39,3.67-1.84,4.86c-1.22,1.01-4.07,2.33-7.5,1.87s-3.92-1.3-5.45-2.33c-1.19-.8-2.87-1.82-4.28-2.2-1.85-.5-4.8-.59-4.59-2.57.17-1.61,4.47-2.5,7.92-2.75Z"/>
        <path class="cls-43" d="m208.24,102.73c1.09-.13,2.63-.43,3.77.02s1.96,2.28,1.29,3.57c-.84,1.61-1.54,2.21-2.73,2-1.47-.27-2.98-1.46-4.28-1.78-1.67-.41-3.63-.6-3.96-1.28-.61-1.24,1.56-2.03,5.92-2.53Z"/>
        <path class="cls-43" d="m221.71,102.85c.99.35,1.89.94,2.4,1.99.66,1.35-.49,3.52-1.71,4.31s-3.63,1.86-4.1.92c-.63-1.26-.72-1.86-1.53-2.94-.79-1.04-1.46-1.64-2.65-2.81-.43-.42-1.83-1.94-.48-2.07.99-.09,4.02.01,5.03.07,1.61.09,2.86.46,3.04.53Z"/>
        <path class="cls-43" d="m214.83,110.75c.58.13,2.23.63,2.75-.04.33-.43-.68-2.48-1.43-3.48-.63-.84-2.05-2.4-2.24-1.13-.09.6-.56,1.54-.96,1.94-.55.54-1.01.8-.51,1.56s1.71.99,2.39,1.15Z"/>
      </g>
      <g>
        <path class="cls-47" d="m189.02,78.3c-.45.24-1.81.52-2.04-.79s1.64-1.8,2.22-1.22.41,1.69-.18,2.02Z"/>
        <path class="cls-42" d="m187.88,76.75s.22-.17.38-.24c.11-.05.09-.39-.4-.18-.38.16-.51.41-.34.51.18.12.36-.1.36-.1Z"/>
      </g>
      <path class="cls-52" d="m239.36,55.97c-.28.04-.96-.12-.81-.77.17-.74,1.14-.56,1.28-.12s-.1.83-.47.88Z"/>
      <path class="cls-52" d="m217.43,87.13c-.33.04-1.13-.15-.96-.9.2-.87,1.34-.65,1.51-.14s-.12.98-.55,1.04Z"/>
      <path class="cls-51" d="m218.36,44.88s-4.6-3.36-4.05-10.16l-.92.22s-.38,6.97,4.51,10.32l.45-.38Z"/>
      <path class="cls-57" d="m205.87,61.59s4.46-2.78,3.7-8.7l.92.22s.6,6.07-4.16,8.83l-.45-.34Z"/>
    </g>
    <polygon class="cls-10" points="218.97 148.04 246.9 137.71 246.9 106.13 218.97 115.13 218.97 148.04"/>
    <polygon class="cls-13" points="218.94 148.04 191.01 137.71 191.01 106.13 218.94 115.13 218.94 148.04"/>
    <polygon class="cls-12" points="229.84 121.3 257.78 111.08 246.9 106.13 218.97 115.13 229.84 121.3"/>
    <polygon class="cls-14" points="208.07 121.3 180.13 111.08 191.01 106.13 218.94 115.13 208.07 121.3"/>
  </g>
</svg>