<?xml version="1.0" encoding="UTF-8"?>
<svg id="_레이어_1" data-name="레이어 1" xmlns="http://www.w3.org/2000/svg" viewBox="0 0 390 170">
  <defs>
    <style>
      .cls-1 {
        font-family: AppleSDGothicNeo-ExtraBold-KSCpc-EUC-H, 'Apple SD Gothic Neo';
      }

      .cls-1, .cls-2 {
        font-weight: 700;
      }

      .cls-1, .cls-3, .cls-4, .cls-5, .cls-6, .cls-7 {
        fill: #fff;
      }

      .cls-8 {
        stroke: gray;
        stroke-width: 2.26px;
      }

      .cls-8, .cls-3, .cls-9, .cls-10, .cls-4, .cls-11 {
        stroke-miterlimit: 10;
      }

      .cls-8, .cls-11 {
        fill: none;
      }

      .cls-12 {
        fill: #0d9bbc;
      }

      .cls-12, .cls-13 {
        font-family: AppleSDGothicNeo-SemiBold-KSCpc-EUC-H, 'Apple SD Gothic Neo';
        font-weight: 600;
      }

      .cls-12, .cls-14 {
        font-size: 12px;
      }

      .cls-15 {
        font-size: 13.35px;
        letter-spacing: .02em;
      }

      .cls-16 {
        opacity: .2;
      }

      .cls-16, .cls-17, .cls-18, .cls-19, .cls-20, .cls-21, .cls-22, .cls-23, .cls-24, .cls-25, .cls-26, .cls-27, .cls-28, .cls-7, .cls-29, .cls-30, .cls-31 {
        stroke-width: 0px;
      }

      .cls-16, .cls-18, .cls-19 {
        fill: #3fa9f5;
      }

      .cls-2 {
        font-family: AppleSDGothicNeo-Bold-KSCpc-EUC-H, 'Apple SD Gothic Neo';
      }

      .cls-3 {
        stroke-width: .45px;
      }

      .cls-3, .cls-9, .cls-10, .cls-4, .cls-5 {
        stroke: #000;
      }

      .cls-17 {
        fill: aqua;
        opacity: .1;
      }

      .cls-18 {
        opacity: .15;
      }

      .cls-19 {
        opacity: .25;
      }

      .cls-9 {
        stroke-width: .34px;
      }

      .cls-9, .cls-10 {
        fill: #b3b3b3;
      }

      .cls-10 {
        stroke-width: .36px;
      }

      .cls-4 {
        stroke-width: .41px;
      }

      .cls-11 {
        stroke: #603813;
        stroke-width: .59px;
      }

      .cls-5 {
        stroke-linecap: round;
        stroke-linejoin: round;
        stroke-width: .42px;
      }

      .cls-6 {
        font-size: 25.55px;
      }

      .cls-14 {
        letter-spacing: .02em;
      }

      .cls-21 {
        fill: #5b45e3;
      }

      .cls-22 {
        fill: #1999e5;
      }

      .cls-23 {
        fill: #41d592;
      }

      .cls-24 {
        fill: #211c33;
      }

      .cls-25 {
        fill: #ac7f1a;
      }

      .cls-26 {
        fill: #848ef0;
      }

      .cls-27 {
        fill: #ff7936;
      }

      .cls-28 {
        fill: #f44345;
      }

      .cls-29 {
        fill: #fffffd;
      }

      .cls-30 {
        fill: #f6d608;
      }

      .cls-31 {
        fill: #f5ede2;
      }
    </style>
  </defs>
  <rect class="cls-24" width="390" height="170"/>
  <text class="cls-6" transform="translate(23.89 64.97) scale(.93 1)"><tspan class="cls-2"><tspan x="0" y="0">함께의 힘!</tspan></tspan><tspan class="cls-13"><tspan x="0" y="35.74">박터지는 쿠폰</tspan></tspan></text>
  <text class="cls-12" transform="translate(23.89 129.92) scale(.93 1)"><tspan x="0" y="0">콩주머니 던지고 슛쿠폰 받기</tspan></text>
  <ellipse class="cls-19" cx="220.7" cy="34.28" rx="6.37" ry="16.38" transform="translate(87.76 213.75) rotate(-62.3)"/>
  <ellipse class="cls-18" cx="196.9" cy="85" rx="9.36" ry="4.46" transform="translate(-16.98 100.77) rotate(-27.57)"/>
  <ellipse class="cls-16" cx="347.84" cy="140.2" rx="5.8" ry="14.75" transform="translate(62.01 383) rotate(-62.3)"/>
  <polygon class="cls-4" points="334.4 84.87 306.11 72 273.8 72 245.42 84.87 228 108.73 239.82 135.36 270.78 151.82 309.05 151.82 340.01 135.36 351.83 108.73 334.4 84.87"/>
  <polygon class="cls-10" points="331.17 85.23 304.88 73.35 275.03 73.35 248.65 85.23 231.99 107.49 243.05 132.54 272.01 148.02 307.82 148.02 336.78 132.54 347.84 107.49 331.17 85.23"/>
  <line class="cls-8" x1="289.91" y1="-1.4" x2="289.91" y2="10.09"/>
  <rect class="cls-3" x="283.19" y="8.29" width="13.46" height="7.3" rx="2.39" ry="2.39"/>
  <polygon class="cls-3" points="347.84 66.64 336.78 32.6 307.82 11.55 272.01 11.55 243.05 32.6 231.99 66.64 347.84 66.64"/>
  <g>
    <path class="cls-20" d="m272.96,31.46h2.68c.3,0,.57.06.84.17.26.11.49.26.69.46.2.19.35.42.46.68.11.26.17.54.17.84,0,.38-.09.74-.28,1.06-.19.32-.43.58-.74.77.27.03.52.11.76.24.23.13.43.29.61.48.17.19.31.41.41.66.1.25.15.51.15.79,0,.3-.06.59-.17.85-.12.26-.27.49-.47.69s-.43.35-.7.47c-.27.12-.55.17-.86.17h-3.53v-8.33Zm.83.34v3.62h1.48c.25,0,.48-.05.7-.14.22-.1.41-.23.57-.39.16-.16.29-.36.38-.58.1-.22.14-.45.14-.7s-.05-.48-.14-.7-.22-.41-.38-.57c-.16-.16-.35-.29-.57-.39-.22-.1-.45-.14-.7-.14h-1.48Zm0,3.97v3.64h2.22c.26,0,.52-.04.76-.13.24-.09.45-.21.62-.37.18-.16.32-.35.42-.57.1-.22.16-.46.16-.73s-.05-.51-.16-.73c-.1-.22-.24-.42-.42-.58-.18-.16-.38-.29-.62-.38-.24-.09-.49-.14-.76-.14h-2.22Z"/>
    <path class="cls-20" d="m285.9,39.78h-1.04c-.47-1.21-2.26-5.81-2.72-7.02l-2.89,7.02h-.36l3.4-8.33h.37c.54,1.39,1.07,2.78,1.61,4.16.54,1.38,1.08,2.77,1.62,4.16Z"/>
    <path class="cls-20" d="m290.62,33c-.02-.07-.26-.49-.64-.79-.13-.1-.47-.43-1.32-.4-.3,0-1.37.25-1.4,1.14,0,.12.07.52.33.83.46.54,1.45.93,1.95,1.21.49.26.96.57,1.25.89.32.36.46.68.55,1.04.09.36.1.71.02,1.06-.08.35-.24.66-.47.93-.23.27-.86.92-2.14.89-.2,0-.83-.05-1.43-.4-.71-.41-1.13-1.08-1.28-1.42h.4s.25.49.6.79c.74.63,1.31.68,1.66.69,1.26.03,1.78-.82,1.89-1.16s.08-.72-.04-1.1c-.12-.39-.48-1.06-1.77-1.7-.31-.15-1.43-.79-1.64-.98-.21-.2-.81-.67-.66-1.57.22-1.28,1.68-1.46,1.99-1.48.67-.04,1.11.14,1.28.22.53.24.78.55.87.73v.58Z"/>
    <path class="cls-20" d="m293.09,37.35v2.44h-.83v-8.34h.83v5.32l3.82-5.32h.42l-4.24,5.9Z"/>
    <path class="cls-20" d="m298.49,31.45h4.35v.34h-3.65v3.67h2.82v.34h-2.82v3.67h3.65v.34h-4.48v-8.34h.13Z"/>
    <path class="cls-20" d="m307.39,31.45h2.74v.34h-2.74v8h-.83v-8h-2.74v-.34h3.57Z"/>
    <path class="cls-20" d="m294.21,35.54c1.12,3.73,4.59,6.46,8.69,6.46s7.68-2.82,8.74-6.65h1.2c-1.46,4.06-5.07,7.06-9.94,7.06-4.19,0-7.67-2.73-8.92-6.51"/>
  </g>
  <path class="cls-28" d="m207.19,96.92s.08-4.39,4.48-6.5c4.39-2.11,8.38-3.65,8.95-8.7l4.22,4.39s-.93,4.56-4.73,6.42c-3.8,1.86-8.32,3.89-8.53,8.62l-4.39-4.22Z"/>
  <path class="cls-21" d="m374.99,62.74s-.85-3.47-4.71-4.37c-3.87-.9-7.31-1.41-8.66-5.32l-2.57,4.24s1.55,3.46,4.9,4.26c3.35.8,7.3,1.61,8.31,5.33l2.74-4.14Z"/>
  <path class="cls-28" d="m350.96,155.85s.97-2.62-1.14-4.9-4.12-4.12-3.28-7.25l-3.53,1.62s-.51,2.92,1.31,4.91,4.03,4.24,3.05,7.1l3.59-1.48Z"/>
  <path class="cls-9" d="m346.67,66.25c0,4.06-25.41,7.35-56.75,7.35s-56.75-3.29-56.75-7.35,25.41-8.37,56.75-8.37,56.75,4.32,56.75,8.37Z"/>
  <rect class="cls-27" x="256.64" y="67.69" width="66.55" height="102.31"/>
  <polyline class="cls-11" points="258.73 67.31 289.91 56.92 321.1 67.31"/>
  <g>
    <path class="cls-7" d="m350.33,64.15c-3.47-3.64-29.71-8.68-60.42-8.68s-56.94,5.04-60.41,8.68v-5.18c0-3.07,27.35-9.08,60.41-9.08s60.42,6.01,60.42,9.08v5.18Z"/>
    <path class="cls-20" d="m289.91,50.09c20.24,0,35.5,2.13,42.79,3.39,12.7,2.21,17.43,4.54,17.43,5.49v4.75c-2.98-2.38-13.66-4.41-17.3-5.04-7.32-1.27-22.63-3.41-42.92-3.41s-35.6,2.13-42.92,3.41c-3.63.63-14.32,2.65-17.3,5.04v-4.75c0-.95,4.73-3.28,17.43-5.49,7.3-1.27,22.56-3.39,42.79-3.39m0-.39c-33.47,0-60.61,5.98-60.61,9.27v5.96c0-3.29,27.14-9.27,60.61-9.27s60.61,5.98,60.61,9.27v-5.96c0-3.29-27.14-9.27-60.61-9.27h0Z"/>
  </g>
  <path class="cls-5" d="m346.09,67.17c.18-.18.28-.36.28-.55,0-3.03-25.27-8.79-56.45-8.79s-56.45,5.76-56.45,8.79c0,.18.1.37.28.55-2.86-.69-4.44-1.45-4.44-2.24,0-3.29,27.14-9.27,60.61-9.27s60.61,5.98,60.61,9.27c0,.79-1.58,1.55-4.44,2.24Z"/>
  <rect class="cls-25" x="253.92" y="66.93" width="72" height="4.18"/>
  <path class="cls-26" d="m364.31,100.76s-3.46-2.28-2.53-7.35l-4.14,2.7s.34,4.22,4.22,6.93l2.45-2.28Z"/>
  <path class="cls-30" d="m363.58,25.27s-1.01,2.81-4.71,3.01l2.59,2.44s2.9-.95,4.13-4.12l-2.01-1.33Z"/>
  <path class="cls-27" d="m227.02,143.2s.33,2.96-2.9,4.78l3.4,1.05s2.18-2.13,1.89-5.52l-2.39-.31Z"/>
  <path class="cls-23" d="m222.99,30.9s-3.57-.47-4.75-4.78l-2.21,3.67s1.86,3.17,5.91,3.81l1.05-2.71Z"/>
  <text class="cls-1" transform="translate(266.6 102.13) scale(.93 1)"><tspan class="cls-14"><tspan x="0" y="0">달걀 30구</tspan></tspan><tspan class="cls-15"><tspan x="7.5" y="14.88">100원</tspan></tspan></text>
  <path class="cls-22" d="m228.32,12.57s4.17,2.88,5.03,6.9c0,0,3.16-2.01,2.44-6.9h-7.48Z"/>
  <circle class="cls-19" cx="338.9" cy="19.49" r="3.49"/>
  <circle class="cls-19" cx="221.01" cy="61.33" r="3.11"/>
  <circle class="cls-17" cx="354.17" cy="7.21" r="10.78"/>
  <g>
    <path class="cls-31" d="m289.84,156.07c3.84-.02,9.8-1.99,10.79-10.16,1.21-9.93-5.13-17.83-10.79-17.98-5.67-.14-11.8,12.06-10.81,19.18.24,1.74,3,9,10.81,8.95Z"/>
    <path class="cls-29" d="m296.14,131.14s2.48,5.64.64,12.46c-1.84,6.82-9.39,7.61-13.17,6.5-3.41-1-4.57-2.99-4.57-2.99,0,0-1.68-8.43,3.73-15.19,4.82-6.02,10.37-4.45,13.37-.79Z"/>
  </g>
</svg>