<?xml version="1.0" encoding="UTF-8"?>
<svg id="_레이어_1" data-name="레이어 1" xmlns="http://www.w3.org/2000/svg" viewBox="0 0 390 170">
  <defs>
    <style>
      .cls-1 {
        fill: #999;
        font-size: 12px;
      }

      .cls-1, .cls-2 {
        font-family: AppleSDGothicNeo-SemiBold-KSCpc-EUC-H, 'Apple SD Gothic Neo';
        font-weight: 600;
      }

      .cls-3 {
        font-family: AppleSDGothicNeo-Bold-KSCpc-EUC-H, 'Apple SD Gothic Neo';
        font-weight: 700;
      }

      .cls-4 {
        font-size: 25.55px;
      }

      .cls-4, .cls-5 {
        fill: #fff;
      }

      .cls-5, .cls-6 {
        stroke-width: 0px;
      }

      .cls-6 {
        fill: #040000;
      }
    </style>
  </defs>
  <rect class="cls-6" width="390" height="170"/>
  <text class="cls-4" transform="translate(23.89 64.97) scale(.93 1)"><tspan class="cls-2"><tspan x="0" y="0">친구 초대 시</tspan></tspan><tspan class="cls-3"><tspan x="0" y="35.74">최대 6만원!</tspan></tspan></text>
  <text class="cls-1" transform="translate(23.89 129.92) scale(.93 1)"><tspan x="0" y="0">친구 초대하고 쿠폰 받기</tspan></text>
  <g>
    <path class="cls-5" d="m203.25,62.27h11.13c1.23,0,2.39.23,3.47.7,1.08.47,2.03,1.1,2.84,1.9.81.8,1.45,1.74,1.92,2.82.47,1.08.7,2.24.7,3.47,0,1.6-.39,3.06-1.17,4.39-.78,1.33-1.81,2.4-3.07,3.19,1.13.13,2.18.47,3.14,1,.96.53,1.8,1.2,2.52,2,.72.8,1.28,1.71,1.7,2.74.42,1.03.62,2.13.62,3.29,0,1.26-.24,2.45-.72,3.54-.48,1.1-1.13,2.05-1.95,2.87s-1.78,1.46-2.89,1.95c-1.12.48-2.3.72-3.57.72h-14.67v-34.58Zm3.44,1.4v15.02h6.14c1.03,0,2-.2,2.92-.6.91-.4,1.7-.94,2.37-1.62.66-.68,1.2-1.48,1.6-2.4.4-.91.6-1.89.6-2.92s-.2-2-.6-2.89c-.4-.9-.93-1.69-1.6-2.37-.67-.68-1.46-1.22-2.37-1.62-.92-.4-1.89-.6-2.92-.6h-6.14Zm0,16.47v15.12h9.23c1.1,0,2.15-.18,3.14-.55,1-.37,1.86-.88,2.59-1.55.73-.67,1.31-1.45,1.75-2.37.43-.91.65-1.92.65-3.02s-.22-2.11-.65-3.04c-.43-.93-1.02-1.74-1.75-2.42-.73-.68-1.6-1.21-2.59-1.6-1-.38-2.05-.57-3.14-.57h-9.23Z"/>
    <path class="cls-5" d="m256.99,96.8h-4.32c-1.96-5.02-9.37-24.12-11.3-29.15l-11.98,29.15h-1.5l14.12-34.58h1.55c2.23,5.79,4.46,11.55,6.69,17.29,2.23,5.74,4.47,11.5,6.74,17.29Z"/>
    <path class="cls-5" d="m276.57,68.67c-.07-.3-1.06-2.04-2.64-3.27-.53-.42-1.96-1.77-5.46-1.66-1.23.04-5.71,1.04-5.8,4.72-.01.5.27,2.16,1.36,3.45,1.91,2.26,6.03,3.85,8.1,5.02,2.03,1.06,4.01,2.36,5.21,3.7,1.34,1.49,1.91,2.84,2.29,4.32.39,1.48.41,2.94.08,4.39-.33,1.45-.98,2.74-1.93,3.87-.96,1.13-3.56,3.81-8.9,3.69-.85-.02-3.44-.22-5.94-1.65-2.94-1.68-4.71-4.49-5.34-5.89h1.66c0,.17,1.05,2.04,2.49,3.27,3.06,2.61,5.44,2.84,6.91,2.87,5.22.12,7.39-3.42,7.83-4.82s.31-2.97-.18-4.59c-.5-1.61-1.99-4.41-7.37-7.04-1.28-.62-5.94-3.27-6.82-4.09-.88-.81-3.38-2.78-2.74-6.5.92-5.33,6.96-6.07,8.26-6.15,2.8-.18,4.59.58,5.33.91,2.22.99,3.24,2.3,3.61,3.03v2.41Z"/>
    <path class="cls-5" d="m286.86,86.72v10.13h-3.44v-34.63h3.44v22.11l15.87-22.11h1.75l-17.62,24.5Z"/>
    <path class="cls-5" d="m309.27,62.22h18.07v1.4h-15.17v15.22h11.72v1.4h-11.72v15.22h15.17v1.4h-18.61v-34.63h.55Z"/>
    <path class="cls-5" d="m346.21,62.22h11.38v1.4h-11.38v33.23h-3.44v-33.23h-11.38v-1.4h14.83Z"/>
    <path class="cls-5" d="m291.5,79.23c4.67,15.51,19.08,26.83,36.08,26.83s31.88-11.7,36.3-27.6h4.97c-6.05,16.87-21.06,29.32-41.27,29.32-17.41,0-31.85-11.35-37.04-27.04"/>
  </g>
</svg>