<?xml version="1.0" encoding="UTF-8"?>
<svg id="_레이어_1" data-name="레이어 1" xmlns="http://www.w3.org/2000/svg" viewBox="0 0 452.73 632.62">
  <defs>
    <style>
      .cls-1 {
        stroke-width: 1.24px;
      }

      .cls-1, .cls-2, .cls-3 {
        fill: none;
      }

      .cls-1, .cls-3 {
        stroke: #ceb48a;
        stroke-miterlimit: 10;
      }

      .cls-2 {
        stroke: #211c33;
        stroke-linecap: round;
        stroke-linejoin: round;
        stroke-width: 2px;
      }

      .cls-4, .cls-5, .cls-6, .cls-7, .cls-8, .cls-9, .cls-10, .cls-11, .cls-12, .cls-13, .cls-14, .cls-15, .cls-16, .cls-17, .cls-18, .cls-19, .cls-20, .cls-21, .cls-22, .cls-23, .cls-24, .cls-25, .cls-26, .cls-27, .cls-28, .cls-29, .cls-30, .cls-31, .cls-32, .cls-33, .cls-34, .cls-35, .cls-36, .cls-37, .cls-38, .cls-39, .cls-40, .cls-41, .cls-42, .cls-43, .cls-44, .cls-45 {
        stroke-width: 0px;
      }

      .cls-3 {
        stroke-width: 1.37px;
      }

      .cls-5 {
        fill: #f58f05;
      }

      .cls-6 {
        fill: #f7f9e1;
      }

      .cls-7 {
        fill: #f9ca9b;
      }

      .cls-8 {
        fill: #f9b800;
      }

      .cls-9 {
        fill: #2c2c38;
      }

      .cls-10 {
        fill: #89511f;
      }

      .cls-11 {
        fill: #a0f2f0;
      }

      .cls-12 {
        fill: #0d9bbc;
      }

      .cls-13 {
        fill: #0ca337;
      }

      .cls-14 {
        fill: #08b718;
      }

      .cls-15 {
        fill: #216975;
      }

      .cls-16 {
        fill: #15cdff;
      }

      .cls-17 {
        fill: #0fe84c;
      }

      .cls-18 {
        fill: #e2c1ea;
      }

      .cls-19 {
        fill: #ddb07f;
      }

      .cls-20 {
        fill: #e16565;
      }

      .cls-21 {
        fill: #e1cab8;
      }

      .cls-22 {
        fill: #dae9a0;
      }

      .cls-23 {
        fill: #c14c4c;
      }

      .cls-24 {
        fill: #d13333;
      }

      .cls-25 {
        fill: #9f2e2e;
      }

      .cls-26 {
        fill: #b9ea42;
      }

      .cls-27 {
        fill: #7d6eed;
      }

      .cls-28 {
        fill: #9fb73d;
      }

      .cls-29 {
        fill: #ff7936;
      }

      .cls-30 {
        fill: #fec538;
      }

      .cls-31 {
        fill: #ffd8d2;
      }

      .cls-32 {
        fill: #f15941;
      }

      .cls-33 {
        fill: #fef5ee;
      }

      .cls-34 {
        fill: #ffe448;
      }

      .cls-35 {
        fill: #fffffd;
      }

      .cls-36 {
        fill: #ea6060;
      }

      .cls-37 {
        fill: #f15d43;
      }

      .cls-38 {
        fill: #eae9cc;
      }

      .cls-39 {
        fill: #ed6e6e;
      }

      .cls-40 {
        fill: #f5ede2;
      }

      .cls-41 {
        fill: #f48484;
      }

      .cls-42 {
        fill: #f72919;
      }

      .cls-43 {
        fill: #ffdf1d;
      }

      .cls-44 {
        fill: #03bb47;
      }

      .cls-45 {
        fill: #038f4a;
      }
    </style>
  </defs>
  <g>
    <path class="cls-44" d="m106.86,288.33s-15.86-41.08-58.97-57.21c-28.98-10.85-43.39-1.91-43.39,13.47,0,17.46,24.2,18.54,24.2,18.54,0,0-18.44,11.74-9.03,24.62,9.41,12.89,34.3,8.09,39.46-9.66,5.17-17.76,34.06,15.76,34.06,15.76l13.66-5.52Z"/>
    <path class="cls-2" d="m96.5,286.49s-32.23-51.62-72.46-40.89"/>
    <path class="cls-2" d="m64.28,253.87s-22.6,6.63-26.42,25.01"/>
  </g>
  <g>
    <path class="cls-17" d="m113.39,283.12s-6.89-16.08-2.77-23.88,8.71-12.04,4.33-18.99-8.14-13.14-5.26-17.33c2.89-4.19,9.91-12.65.54-23.54-9.37-10.89-12.85-13.98-10.75-19.38,2.1-5.4,1.2-12.89-11.95-21.74-15.18-10.21-20.14-.23-16.5,8.46,3.64,8.69,5.21,14.92,2.13,18.93-3.08,4.01-7.7,5.57-1.32,18.53,6.37,12.97,1.45,15.49-1.21,19.29-2.65,3.8-4.61,13.18,4.93,19.12,9.53,5.93,4.75,10.82,10.73,18.31,8.12,10.18,15.1,18.91,27.09,22.23Z"/>
    <path class="cls-13" d="m152.86,316.59l-1.33,4.54s-16.55-4.84-30.01-21.07c-13.25-15.98-20.18-31.32-29.37-54.41-6.33-15.9-6.38-39.46-5.8-52.57.03-.57.86-.56.88,0,.52,12.7,2.21,35.09,7.72,50.12,10.18,27.79,22.93,48.17,36.7,60.53,9.69,8.69,21.21,12.87,21.21,12.87Z"/>
  </g>
  <g>
    <path class="cls-11" d="m197.45,377.51s-10.25-8.01-19.54-10.83c-9.28-2.81-33.04-11.75-52.69-21.68s-33.67-24.15-40.92-33.7c-9.36-12.33-14.72-24.27-15.84-31.56l10.08.75-2.78-9.81,58.87,35.19,61.28,66.23,1.54,5.41Z"/>
    <path class="cls-12" d="m128.83,287.46l17.28-7.77c.97-.44,2.1.06,2.44,1.06l10.95,32.46-30.66-25.75Z"/>
    <path class="cls-16" d="m201.77,372.15s-8.2-5.38-19.16-23.79c-10.96-18.42-24.15-42.31-49.64-60.39-25.49-18.08-57.2-17.28-57.2-17.28,0,0,8.97,7.91,26.03,17.24.73.4,1.71.94,2.43,1.34.26.14-2.93,8.72-8.05,12.51-5.76,4.26-14.39,6.09-14.39,6.09,0,0,.92,1.34,1.71,2.36.5.65,1.56,2.06,1.56,2.06,0,0,8.79-1.76,14.63-6.61,5.84-4.85,9.07-13.82,9.07-13.82,1.11.66,2.58,1.55,3.66,2.21.09.06-1.92,8.12-7.53,13.82-7.27,7.38-16.64,8.27-16.64,8.27,0,0,1.17,1.35,2.32,2.6.69.75,1.94,2.03,1.94,2.03,0,0,10.15-2.27,16.79-9.63,4.38-4.86,7.73-14.16,7.96-14.01,9.75,6.44,21.74,16.64,30.58,25.21,13.37,12.99,41.91,44.27,50.91,52.01l3.03-2.23Z"/>
    <circle class="cls-9" cx="94.13" cy="284.54" r="4.26"/>
    <path class="cls-12" d="m122.26,303.38c-.82,2.08-2.76,6.12-6.32,8.75-.58.43-.56,1.29.06,1.66,3.28,1.95,12.18,6.91,22.58,10.07.83.25,1.56-.62,1.17-1.4-1.74-3.42-6.25-10.84-15.9-19.45-.51-.46-1.33-.27-1.58.37Z"/>
    <path class="cls-15" d="m233.9,361.22s-34.12,9.93-37.51,48.64c0,0-10.05-12.82-5.11-42.73,0,0,24.6-10.75,42.62-5.91Z"/>
  </g>
  <g>
    <path class="cls-14" d="m405.67,305.88s12.6.54,23.16-5.38c10.55-5.92-1.13-8.68-23.16,5.38Z"/>
    <path class="cls-14" d="m393.12,321.96s12.42,2.18,23.66-2.31c11.24-4.49.01-8.75-23.66,2.31Z"/>
    <path class="cls-14" d="m414.49,291.43s12.02-2.95,20.85-11.22c8.83-8.27-2.76-7.6-20.85,11.22Z"/>
    <path class="cls-14" d="m422.73,274.37s11.8-5.13,18.29-15.35c6.49-10.22-5.65-7.55-18.29,15.35Z"/>
    <path class="cls-14" d="m414.07,290.67s2.81-12.56-1.62-23.82c-4.43-11.27-9.43.11,1.62,23.82Z"/>
    <path class="cls-14" d="m401.24,309.41s2.81-12.56-1.62-23.82c-4.43-11.27-9.43.11,1.62,23.82Z"/>
    <path class="cls-14" d="m392.11,322.44s1.99-12.71-3.15-23.67c-5.14-10.96-9.4.72,3.15,23.67Z"/>
    <path class="cls-14" d="m373.19,336.9s16.65-11.99,33.52-35.8c13.95-19.68,20.86-42.28,20.28-44.56,0,0,.53,11.34-7.42,27.12-6.56,13.02-16.02,26.4-20.25,32.11-3.93,5.32-15.69,19.08-19.97,20.71-1.44.55-6.15.41-6.15.41Z"/>
    <path class="cls-14" d="m425.55,266.9s5.08-13.16,2.11-26.09c-2.97-12.93-10.24-1.41-2.11,26.09Z"/>
  </g>
  <g>
    <path class="cls-42" d="m357.92,385.74s10.86-8.56,16.09-16.63c5.34-8.25,8.96-14.2,10.67-24.97,1.32-8.29-5.58-18.56,4.51-14.62,11.71,4.57,13.39,22.36,2.79,36.81-11.04,15.05-17.67,20.66-25.56,23.42-7.86,2.75-11.48-2.51-8.5-4.01Z"/>
    <path class="cls-42" d="m337.55,379.58s-4.8-11.71-4.73-21.64c.06-9.83.56-17.84,5.05-27.79,3.46-7.66,14.95-12.48,4.25-14.69-12.42-2.57-22.74,11.88-23.11,29.76-.32,15.32,5.05,26.14,9.14,33.08,4.23,7.17,11.42,4.31,9.4,1.29Z"/>
    <path class="cls-44" d="m366.74,319.7c3.79,1.22,10.42,3.12,12.39,2.29,1.96-.83-4.23-5.94-5.87-7.47-1.64-1.53,1.15-8.13,1.83-9.04s.46-3.29-3.34-4.32c-3.99-1.07-4.52.97-4.7,2.56s-1.23,6.34-2.28,7.46-9.83.7-10.09,3.55c-.19,2.05,10.01,4.33,12.05,4.98Z"/>
    <path class="cls-37" d="m344.24,386.89s3.53-.29,6.99,2.16c4.83,3.41,15.79-7.03,25.21-22.24,8.45-13.64,17.8-39.25-1.51-43.09-14.69-2.92-18.33-6.75-24.04-6.18-10.83,1.08-16.08,12.05-18.11,32.34-2.03,20.29,4.06,36.17,11.46,37.01Z"/>
  </g>
  <g>
    <path class="cls-8" d="m295.43,342.64s7.96-11.31,10.66-20.53,4.53-16.17,3.09-26.98c-1.1-8.32-10.65-16.19.14-15.29,12.52,1.04,19.22,17.61,13.2,34.48-6.27,17.58-11.03,24.85-17.8,29.75-6.74,4.88-11.72.87-9.29-1.42Z"/>
    <path class="cls-8" d="m274.15,342.56s-7.95-9.85-10.72-19.38c-2.75-9.44-4.56-17.26-3.1-28.08,1.12-8.33,10.76-16.23-.12-15.29-12.64,1.09-18.39,17.88-13.64,35.13,4.07,14.77,12.31,23.61,18.21,29.08,6.1,5.66,12.18.86,9.38-1.45Z"/>
    <path class="cls-44" d="m285.02,276.83c3.98.09,10.88.01,12.52-1.35,1.64-1.36-5.75-4.49-7.76-5.49-2.01-1-1.22-8.11-.83-9.19s-.5-3.29-4.43-3.18c-4.13.11-4.05,2.22-3.78,3.8.27,1.57.63,6.43-.05,7.8s-9.22,3.48-8.65,6.28c.41,2.02,10.83,1.29,12.97,1.33Z"/>
    <path class="cls-43" d="m282.65,347.65s3.3-1.28,7.32.07c5.6,1.89,13.12-11.25,17.8-28.51,4.2-15.49,5.84-42.7-13.76-40.86-14.91,1.4-19.5-1.23-24.81.95-10.07,4.13-11.97,16.14-8.11,36.17,3.85,20.03,14.22,33.5,21.56,32.19Z"/>
  </g>
  <g>
    <path class="cls-27" d="m316.33,162.09s-2.46,10.04-8.34,17.18c-5.88,7.14-20,7.47-28.32,8.3s-22.08,5.02-21.96,23.56c.15,22.99,31.26,32.53,58.65,14.29,27.38-18.24,21.58-59.05,18.16-64.67-3.42-5.62-11.91-10.48-18.19,1.34Z"/>
    <path class="cls-44" d="m323.27,161.76c-.29-.63-1.07-.87-1.66-.5-2.3,1.44-7.53,4.51-9.64,4.14-2.75-.47-.22-2.3,2.91-6.44,3.13-4.14,2.07-7.13,6.02-8.4,4.63-1.49,6.64-.74,6.64-.74,0,0,.17-5.97-2.51-8.59-2.68-2.62-2.77-4.13-1.22-4.84,4.96-2.26,6.53,3.06,7.15,7.37.48,3.35.02,6.56.02,6.56,0,0,4.91,2.1,6.2,4.79.9,1.88,2.55,10.82,5.2,15.43.99,1.72-1.69,1.73-4.45-2.21-2.3-3.28-3.25-7.38-4.8-4.67-1.55,2.71-2.64,5.76-2.8,7.59-.16,1.82-1.6.96-3.95-3.3-1.4-2.54-2.5-4.86-3.11-6.2Z"/>
  </g>
  <rect class="cls-19" x="410.09" y="303.61" width="4.32" height="90.01" transform="translate(503.97 880.66) rotate(-140)"/>
  <g>
    <g>
      <path class="cls-37" d="m167.94,210.15s6.69-15.91,23.93-15.07c17.24.84,30.49,18.22,26.82,39.93-3.31,19.56-14.24,25.51-24.09,26.39-1.18.1-2.29.62-3.12,1.46-3.57,3.61-14.67,12.89-30.01,7.35-17.97-6.5-29.14-21.03-25.91-39.78,2.73-15.8,19.26-21.21,32.38-20.28Z"/>
      <path class="cls-42" d="m196.26,252.48s-17.55-26.55-17.95-33.82c-.56-10.18,10.33-17.51,21.32-12.59,13.96,6.25,17.73,34.79-3.37,46.41Z"/>
      <path class="cls-42" d="m184,257.32s-13.68-23.17-16.81-27.88c-3.13-4.71-11.75-7.48-17.44-4.55-5.69,2.93-8.47,16.65-.25,26.48,8.22,9.82,21.15,16.52,34.5,5.96Z"/>
      <path class="cls-7" d="m192.62,222.72s.02-8,3.55-6.12c3.61,1.93-1.11,5.37-3.55,6.12Z"/>
      <path class="cls-7" d="m196.27,227.9s4.06-7,6.39-3.54c2.08,3.09-3.38,4.17-6.39,3.54Z"/>
      <path class="cls-7" d="m196.55,234.86s5.87-3.06,6.52.01c.69,3.23-3.53,2.62-6.52-.01Z"/>
      <path class="cls-7" d="m161.81,237.68s-6.85,4.13-7.07.13c-.22-4.09,5.37-1.8,7.07-.13Z"/>
      <path class="cls-7" d="m162.14,244.3s-7.93-1.61-6.89,2.43c.93,3.61,5.36.25,6.89-2.43Z"/>
      <path class="cls-7" d="m169.55,250.86s-6.23,2.24-4.41,4.81c1.91,2.69,4.31-.82,4.41-4.81Z"/>
    </g>
    <polygon class="cls-44" points="157.2 216.34 173.37 207.39 180.55 192.49 169.39 203.12 168.15 187.16 162.59 205.67 143.57 199.71 157.14 210.19 141.43 216.14 157.2 216.34"/>
  </g>
  <g>
    <path class="cls-29" d="m109.2,392.19c5.65,5.74,19.04,19.87,27.78,14.28,8.74-5.59-5.88-32.4-13.46-51.9-7.57-19.49-22.39-52.04-45.78-37.59-23.39,14.45-3.65,39.32,4.91,48.35,8.56,9.03,19.93,20.13,26.55,26.87Z"/>
    <path class="cls-25" d="m99.05,352.11c-4.23,1.69-3.79,3.36-10.78,5.9-6.49,2.35,1.9,6.39,9.7-.12,5.66-4.73,3.5-6.75,1.08-5.78Z"/>
    <path class="cls-25" d="m89.64,351.14c-1.89.44-2.55,1.99-5.91,2.59-6.02,1.07-1.81,6.79,4.97,1.62,3.44-2.62,3.93-4.9.94-4.21Z"/>
    <path class="cls-17" d="m76.81,314.57s-6.46-18.61-18.55-27.08c-12.09-8.48-24.28,3.78-17.36,14.4,4.84,7.43,14.43,4.78,21.12,6.94,5.49,1.78,14.79,5.74,14.79,5.74Z"/>
    <path class="cls-17" d="m73.36,316.78s-14.28-10.32-21.61-.78c-5.58,7.26,4.86,14.12,8.65,9.73,3.79-4.39,12.96-8.95,12.96-8.95Z"/>
  </g>
  <g>
    <path class="cls-45" d="m317.26,302.55s14.04,2.58,16.38,14.9-.29,13.35,2.07,22.87c3.4,13.72,6.93,30.39-2.66,44.26-8.97,12.97-31.13,19.48-54.2,3.95l38.41-85.98Z"/>
    <path class="cls-26" d="m281.26,389.73c9.5,4.43,30.7,5.19,40.28-9.43,10.92-16.67,5.9-32.83,5.31-41.09s6.93-32.53-9.59-36.66c-16.52-4.13-26.33,16.97-29.28,22.88s-17.41,15.51-20.59,27.88c-3.39,13.2.3,30.1,13.87,36.43Z"/>
    <path class="cls-10" d="m302,337.66s8.25,8.22,5.36,22.35c-2.55,12.43-12.35,19.64-21.86,16.9-9.53-2.75-12.07-17.77-6.16-26.85,7.37-11.33,15.25-12.4,22.67-12.4Z"/>
  </g>
  <g>
    <path class="cls-36" d="m149.34,305.88l-3.95,15.55s-1.97,7.48,6.02,12.41c7.99,4.93,16.56,11.81,20.38,20.3,3.82,8.49,21.41,28.5,46.75,36.48,25.35,7.98,40.76-5.45,42.65-9.07,1.34-2.56,11.99-27.26,11.99-27.26l-123.83-48.4Z"/>
    <path class="cls-41" d="m198.72,303.94c12.87,3.53,28.26,8.53,49.72,17.08,21.47,8.55,25.93,20.29,25.48,29.21-.45,8.92-9.66,19.64-19.53,23.22-8.34,3.02-26.28,4.85-43.47-3.99-17.19-8.84-18.62-15.18-24.72-23.42-4.78-6.46-12.12-14.23-18.85-18.89-8.79-6.09-22.13-13.19-17.3-23.2,3.94-8.16,29.98-5.14,48.66-.02Z"/>
    <path class="cls-31" d="m197.44,305.69c12.34,3.38,28.44,8.56,49.02,16.75,20.57,8.19,25.18,18.71,24.75,27.25-.43,8.55-8.54,17.82-18.01,21.25-7.99,2.9-24.72,4.42-41.19-4.05-16.47-8.47-17.46-13.63-23.31-21.52-4.58-6.19-11.21-14.35-17.66-18.81-8.43-5.83-23.18-11.63-18.54-21.22,3.77-7.82,27.04-4.57,44.94.34Z"/>
    <path class="cls-24" d="m190.13,308.3c5.75,1.33,14.05,2.57,19.01,6.88,4.96,4.32,5.78,15.05.07,20.32-7.16,6.62-11.77,8.4-17.39,5.18-6.94-3.98-12.43-12.7-18.4-16.65-7.7-5.09-17.22-9.54-17.69-13.6-.86-7.36,11.51-7.43,34.4-2.14Z"/>
    <path class="cls-24" d="m257.88,333.12c4.39,3.56,7.86,8.13,8.55,14.35.88,8.01-8.79,16.88-16.4,18.69-7.61,1.82-21.66,2.85-22.34-2.73-.91-7.5-.28-10.7-2.44-17.57-2.09-6.66-4.42-10.9-8.33-18.97-1.4-2.89-5.76-13.07,1.27-11.29,5.17,1.31,20.29,7.29,25.29,9.38,7.95,3.32,13.58,7.47,14.41,8.14Z"/>
    <path class="cls-24" d="m208.98,360.6c2.7,1.73,10.12,7.17,13.96,4.74,2.45-1.55,1.05-13.76-.94-20.11-1.68-5.37-6.03-15.79-9.29-9.74-1.56,2.88-5.59,6.79-8.32,8.06-3.73,1.73-6.55,2.23-5.39,6.97,1.18,4.83,6.83,8.08,9.99,10.09Z"/>
  </g>
  <g>
    <path class="cls-40" d="m217.69,118.74s-12.37,1.85-12.03,20.13c.32,17.48,7.61,26.41,13.99,29.78,6.37,3.37,20.94,4.2,27.85-5.98l-29.81-43.92Z"/>
    <path class="cls-35" d="m245.27,164.64c4.98-3.19,7.51-12.02,3.12-22.16-6.64-15.32-23.86-25.35-30.7-23.74-8.12,1.91-12.04,17.8-1.42,34.85,10.62,17.05,23.09,14.84,29,11.05Z"/>
    <path class="cls-30" d="m226.84,138.63s-7.23,7.68,1.06,17.49c5.72,6.76,14.23,4.43,14.23,4.43,0,0,8.47-6.85,2.97-16.35-5.1-8.82-14.6-7.93-18.27-5.57Z"/>
  </g>
  <g>
    <path class="cls-40" d="m255.6,107.97c6.51,2.26,17.85,2.26,24.81-12.03,8.46-17.35,2.86-35.55-6.62-39.21-9.48-3.66-27.74,14.88-30.66,28.45-.71,3.32-.75,18.19,12.48,22.78Z"/>
    <path class="cls-35" d="m282.35,66.34s.54,11.76-6.97,23.08c-7.51,11.32-20.79,8.23-26.46,3.94-5.11-3.86-5.79-8.18-5.79-8.18,0,0,2.61-16.36,16.13-25.42,12.03-8.07,20.4-1.89,23.1,6.58Z"/>
  </g>
  <path class="cls-38" d="m371.3,261.17l-10.05,6.74c-.35.23-.82.1-1-.27-1.18-2.37-3.44-10.23-6.45-12.18-4.31-2.79-7.43,3-3.16,5.9.42.28.43.9,0,1.17-2.18,1.37-8.18,4.32-13.99-1.38-7.38-7.24,1.48-22.21,8.83-26.94,10.59-6.82,20.91-7.94,27.62-.66,6.23,6.76-1.32,13.92-4.02,15.69-.41.27-.96.04-1.07-.44-.31-1.36-.86-4.09-3.52-4.03-3.26.07-4.85,3.18-2.58,6.81,1.88,3.01,7.86,6.73,9.51,8.55.29.32.22.82-.14,1.05Z"/>
  <g>
    <path class="cls-39" d="m107.98,351.52l1.49,15.97s.66,7.7,9.83,9.67,19.56,5.57,26.01,12.29c6.45,6.72,29.72,19.67,56.28,18.69,26.55-.98,36.57-18.8,37.13-22.85.4-2.86,2.15-29.71,2.15-29.71l-132.9-4.07Z"/>
    <path class="cls-41" d="m153.85,333.13c13.31-.99,29.48-1.44,52.57-.58,23.09.86,31.24,10.42,33.8,18.97s-2.51,21.75-10.61,28.43c-6.84,5.64-23.13,13.38-42.29,10.82-19.16-2.57-22.64-8.05-31.14-13.77-6.67-4.48-16.19-9.34-24.09-11.47-10.32-2.78-25.27-5.01-24.08-16.06.98-9,26.52-14.9,45.84-16.34Z"/>
    <path class="cls-31" d="m153.23,335.2c12.76-.95,29.67-1.48,51.8-.66,22.13.82,30,9.18,32.45,17.37,2.46,8.2-2.07,19.66-9.83,26.06-6.56,5.41-21.8,12.46-40.16,10s-21.02-6.98-29.18-12.46c-6.4-4.3-15.37-9.76-22.95-11.8-9.89-2.67-25.73-3.18-24.59-13.77.93-8.63,23.94-13.37,42.45-14.75Z"/>
    <path class="cls-24" d="m147.22,340.12c5.86-.68,14.1-2.29,20.22.11,6.12,2.4,10.49,12.24,6.88,19.12-4.52,8.63-8.27,11.86-14.64,10.71-7.87-1.42-15.97-7.8-22.92-9.52-8.96-2.22-19.42-3.21-21.23-6.87-3.27-6.65,8.36-10.86,31.69-13.55Z"/>
    <path class="cls-24" d="m219.37,340.78c5.33,1.88,10.14,5.03,12.87,10.65,3.52,7.25-2.62,18.85-9.18,23.11-6.56,4.26-19.45,9.95-21.96,4.92-3.37-6.76-3.86-9.99-8.2-15.74-4.21-5.57-7.82-8.79-14.21-15.08-2.29-2.25-9.81-10.38-2.6-11.06,5.31-.5,21.55.06,26.97.36,8.6.46,15.3,2.48,16.3,2.84Z"/>
    <path class="cls-24" d="m182.51,383.06c3.13.72,11.94,3.36,14.74-.22,1.78-2.28-3.63-13.31-7.63-18.63-3.39-4.5-10.97-12.85-12.02-6.06-.5,3.23-2.98,8.27-5.14,10.38-2.94,2.88-5.42,4.3-2.74,8.37s9.14,5.32,12.79,6.16Z"/>
  </g>
  <g>
    <rect class="cls-19" x="88.95" y="381.78" width="298" height="197.2"/>
    <g>
      <path class="cls-4" d="m109.89,494.72h17.88c1.98,0,3.83.37,5.57,1.12,1.74.75,3.26,1.76,4.57,3.05,1.31,1.28,2.34,2.79,3.09,4.53.75,1.74,1.12,3.6,1.12,5.57,0,2.57-.63,4.92-1.88,7.06-1.26,2.14-2.9,3.85-4.93,5.13,1.82.21,3.5.75,5.05,1.6,1.55.86,2.9,1.92,4.05,3.21,1.15,1.28,2.06,2.75,2.73,4.41.67,1.66,1,3.42,1,5.29,0,2.03-.39,3.93-1.16,5.69-.78,1.76-1.82,3.3-3.13,4.61-1.31,1.31-2.86,2.35-4.65,3.13-1.79.78-3.7,1.16-5.73,1.16h-23.57v-55.56Zm5.53,2.24v24.13h9.86c1.66,0,3.22-.32,4.69-.96,1.47-.64,2.74-1.51,3.81-2.61,1.07-1.1,1.92-2.38,2.57-3.85.64-1.47.96-3.03.96-4.69s-.32-3.21-.96-4.65c-.64-1.44-1.5-2.71-2.57-3.81-1.07-1.1-2.34-1.96-3.81-2.61-1.47-.64-3.03-.96-4.69-.96h-9.86Zm0,26.46v24.29h14.83c1.76,0,3.45-.29,5.05-.88,1.6-.59,2.99-1.42,4.17-2.49,1.18-1.07,2.11-2.34,2.81-3.81.69-1.47,1.04-3.09,1.04-4.85s-.35-3.39-1.04-4.89c-.7-1.5-1.63-2.79-2.81-3.89-1.18-1.09-2.57-1.95-4.17-2.57-1.6-.61-3.29-.92-5.05-.92h-14.83Z"/>
      <path class="cls-4" d="m196.23,550.2h-6.93c-3.15-8.07-15.05-38.75-18.15-46.82l-19.25,46.82h-2.41l22.69-55.56h2.49c3.58,9.3,7.16,18.56,10.74,27.78,3.58,9.22,7.19,18.48,10.82,27.78Z"/>
      <path class="cls-4" d="m227.69,505.01c-.12-.48-1.7-3.27-4.24-5.25-.86-.67-3.15-2.85-8.78-2.67-1.98.06-9.17,1.67-9.31,7.59-.02.8.44,3.48,2.18,5.54,3.07,3.63,9.69,6.19,13.01,8.06,3.26,1.71,6.44,3.79,8.37,5.95,2.15,2.39,3.06,4.56,3.69,6.94.62,2.38.67,4.73.13,7.06-.53,2.33-1.57,4.4-3.11,6.21-1.54,1.82-5.72,6.12-14.3,5.93-1.36-.03-5.53-.35-9.55-2.65-4.73-2.7-7.57-7.22-8.57-9.46h2.66c0,.27,1.68,3.28,4,5.25,4.92,4.19,8.73,4.56,11.1,4.61,8.39.19,11.87-5.5,12.58-7.74.71-2.25.51-4.77-.29-7.37-.8-2.59-3.19-7.08-11.84-11.31-2.05-1-9.54-5.26-10.96-6.57-1.42-1.31-5.43-4.46-4.4-10.44,1.47-8.57,11.19-9.74,13.26-9.88,4.49-.29,7.38.94,8.56,1.47,3.57,1.59,5.2,3.69,5.79,4.87v3.87Z"/>
      <path class="cls-4" d="m244.21,534.01v16.28h-5.53v-55.64h5.53v35.52l25.5-35.52h2.81l-28.3,39.37Z"/>
      <path class="cls-4" d="m280.22,494.64h29.02v2.25h-24.37v24.45h18.83v2.24h-18.83v24.45h24.37v2.25h-29.91v-55.64h.88Z"/>
      <path class="cls-4" d="m339.57,494.64h18.29v2.25h-18.29v53.38h-5.53v-53.38h-18.29v-2.25h23.82Z"/>
      <path class="cls-4" d="m251.66,521.97c7.5,24.91,30.65,43.11,57.97,43.11s51.22-18.8,58.32-44.33h7.98c-9.73,27.11-33.84,47.11-66.3,47.11-27.97,0-51.17-18.24-59.51-43.45"/>
    </g>
    <g>
      <path class="cls-4" d="m189.54,410.29h-5.51v-9.09h5.51v9.09Zm-1.49-7.74h-2.52v6.41h2.52v-6.41Zm5.62,11.66v-7.49h-1.3v6.8h-1.5v-13.81h1.5v5.58h1.3v-5.88h1.53v14.8h-1.53Z"/>
      <path class="cls-4" d="m200.88,406.58c-1.95,0-3.51-1.25-3.51-3.26s1.5-3.39,3.51-3.39,3.51,1.38,3.51,3.39-1.5,3.26-3.51,3.26Zm0-5.23c-1.07,0-1.95.86-1.95,1.96s.84,1.86,1.95,1.86c1.18,0,1.95-.85,1.95-1.86,0-1.11-.74-1.96-1.95-1.96Zm-1.52,12.74v-3.87h7.4v-1.21h-7.46v-1.38h9.04v3.85h-7.38v1.26h7.83v1.35h-9.43Zm7.38-7.23v-7.46h1.58v7.46h-1.58Z"/>
      <path class="cls-4" d="m222.34,406.45c-1.42.31-3.51.48-5.98.5h-1.44v-6.55h6.1v1.38h-4.52v3.8c2.04,0,4.15-.15,5.59-.48l.25,1.35Zm-6.02,7.56v-5.55h8.84v5.55h-8.84Zm7.25-4.2h-5.65v2.86h5.65v-2.86Zm1.6-5.47v3.34h-1.6v-8.27h1.6v3.51h2.01v1.43h-2.01Z"/>
      <path class="cls-4" d="m227.84,408.16v-1.38h12.46v1.38h-12.46Zm1.61,5.65v-4.35h1.59v2.99h7.82v1.36h-9.41Zm.08-8.84v-5.08h1.6v3.72h7.65v1.36h-9.24Z"/>
      <path class="cls-4" d="m252.73,407.86c-1.16-.51-2.59-1.89-3.17-3.32-.43,1.55-1.92,3.12-3.28,3.72l-.96-1.36c1.95-.81,3.41-2.77,3.41-5.07v-1.6h1.63v1.53c0,2.34,1.69,4.17,3.31,4.74l-.93,1.36Zm-5.14,5.93v-4.68h1.58v3.32h7.8v1.36h-9.38Zm7.49-3.66v-10.73h1.58v10.73h-1.58Z"/>
      <path class="cls-4" d="m265.95,407.98c-1.16-.52-2.57-1.88-3.19-3.31-.42,1.56-1.9,3.12-3.25,3.7l-.98-1.35c1.95-.8,3.41-2.79,3.41-5.08v-1.71h1.62v1.63c0,2.34,1.7,4.19,3.3,4.77l-.91,1.35Zm-4.89,5.8v-4.6h1.59v3.24h7.71v1.36h-9.3Zm4.91-9.52v-1.41h2.51v-3.44h1.59v10.73h-1.59v-5.88h-2.51Z"/>
      <path class="cls-4" d="m271.99,403.08v-1.33h7.99v1.33h-7.99Zm4.01,5.43c-1.84,0-3.24-1.01-3.24-2.43s1.38-2.46,3.24-2.46,3.21,1.03,3.21,2.46-1.38,2.43-3.21,2.43Zm-2.04,5.52v-4.82h8.86v4.82h-8.86Zm.03-14.49h4.04v1.35h-4.04v-1.35Zm2.01,5.37c-.9,0-1.69.43-1.69,1.18s.8,1.16,1.69,1.16,1.66-.45,1.66-1.16-.77-1.18-1.66-1.18Zm5.22,5.65h-5.67v2.13h5.67v-2.13Zm1.6-5.68v3.59h-1.6v-9.06h1.6v4.04h2.03v1.43h-2.03Z"/>
    </g>
  </g>
  <g>
    <path class="cls-23" d="m351.61,590.02s-6.05.86-8.76,1.71c-2.71.85-1.18-4.4.35-9.64,1.53-5.24,2.67-18.22,12.98-25.02,10.32-6.8,21.48-17.43,37.23-16.83,15.75.6,23.26,3.12,31.96.31,8.7-2.81,6.34,3.07,4.72,7.05-1.62,3.98,1.73,11.31.69,16.61-1.04,5.31-5.96,12.8-5.96,12.8l-73.22,13Z"/>
    <path class="cls-25" d="m402.79,557.06c-.54,3.79,3.95,5.55,1.31,12.48-2.22,5.81,8.63,0,6.81-7.84-1.32-5.7-7.55-8.58-8.12-4.64Z"/>
    <path class="cls-20" d="m343.82,607.43c-2.29.29-3.95-2.15-2.84-4.17,5.09-9.26,16.77-29.2,45.13-35.92,35.26-8.36,43.42,11.63,53.07,14.53,9.66,2.9,6.04,8.87-2.3,17.67-8.33,8.8-18.56,18.93-37.3,19.71-21.37.89-22.24-4.2-34.31-9.1-8.16-3.31-12.66-3.84-21.45-2.73Z"/>
    <path class="cls-25" d="m415.89,589.17c-1.12,4.23,1.87,7.77-1.39,14.96-2.74,6.03,6.38,2.87,6.52-6.87.1-7.07-3.96-12.49-5.13-8.09Z"/>
    <path class="cls-25" d="m376.12,588.12c.65-4.32-1.22-4.18.52-8.86,2.31-6.2-6.94-3.48-5.88,6.2.61,5.52,4.68,7.17,5.36,2.66Z"/>
    <path class="cls-25" d="m408.36,599.92c-.86,1.65.98,2.84-.68,5.66-2.98,5.05,3.8,5.56,4.28-2.6.24-4.14-2.24-5.66-3.6-3.06Z"/>
  </g>
  <g>
    <path class="cls-18" d="m133.18,599.03c.33-3.85-1.44-10.55,2.21-16.72,4.39-7.4,10.51-13.2,11.43-16.75.69-2.66-3.45-3.55-7.47,1.8-3.56,4.73-8.67,7.2-12.26,11.1-2.57,2.79-4.4,9.64-2.49,14.97,2.24,6.25,8.42,7.53,8.59,5.6Z"/>
    <path class="cls-18" d="m166.24,598.8c-.33-3.85,1.02-9.9-2.63-16.06-4.39-7.4-8.81-12.7-9.72-16.25-.69-2.66,2.66-4.46,6.68.88,3.56,4.73,8.67,7.2,12.26,11.1,2.57,2.79,4.29,8.49,2.39,13.83-2.24,6.25-8.81,8.43-8.98,6.51Z"/>
    <path class="cls-33" d="m150.18,600.72c-2.3.06-4,.26-7.17,1.99-3.87,2.12-12.16.83-13.4-6.97-1.25-7.8.77-13.72,9.35-22.25,3.97-3.94,7.79-9.8,8.26-15.61.47-5.81,2.03-7.64,2.96-4.65.94,2.99,1.09,3.82,1.56,1.66s1.71-1.99,1.56,2.16,2.65,11.79,6.86,16.11c4.21,4.32,10.27,9.14,10.73,17.93.41,7.93-5.81,13.18-11.79,12.02-4.74-.92-6.22-2.46-8.91-2.39Z"/>
  </g>
  <g>
    <path class="cls-5" d="m125.85,574.83c.34-10.12-3.51-25.29-21.13-35.9-17.76-10.7-36.79,11.07-36.79,11.07,0,0-7.8.61-13.92-5.42-6.12-6.02-6.55-4.08-8.4-2.44-1.85,1.64-.71,1.94-.34,5.44s-2.21,8.8-8.19,15.67c-5.97,6.87-10.3,20.92-5.31,30.83,4.99,9.91,15.31,14.77,23.27,15.26,7.96.48,12.44-.38,13.33,1.52.9,1.9,1.01,1.96,3.55.09s7.1.19,5.92-1.71-1.06-2.7.38-3.26,4.26-1.56,6.63-4.23c0,0,17.27.48,25.11-4.14,7.84-4.62,9.22-6.89,11.99-8.06s6.82.33,7.31-2.59c.49-2.92-1.13-1.73-.82-3.73.31-2,1.46-2.28-.6-3.33s-2.08-2.84-2.01-5.06Z"/>
    <path class="cls-6" d="m98.12,539.71c-3.54-1.94-16-3.11-25.14,9.42-9.11,12.49-8.58,25.41-6.7,32.56,1.87,7.15,4.71,14.04,16.06,14.58,9.77.46,19.17-6.21,24.17-15.89,4.42-8.57,6.31-19.22,3.05-27.6-4.13-10.59-9.24-11.86-11.44-13.07Z"/>
    <path class="cls-3" d="m95.97,545.66c-2.77-1.52-12.55-2.42-19.75,7.47-7.18,9.86-6.78,20.03-5.32,25.66,1.46,5.63,3.67,11.05,12.58,11.45,7.67.34,15.06-4.93,19-12.56,3.49-6.76,4.99-15.16,2.44-21.74-3.22-8.33-7.23-9.33-8.95-10.27Z"/>
    <path class="cls-3" d="m94.16,550.95c-2.01-1.11-9.17-1.63-14.6,5.95-5.42,7.56-5.29,15.25-4.3,19.48.98,4.23,2.52,8.3,9.05,8.46,5.62.14,11.12-3.96,14.14-9.79,2.66-5.16,3.9-11.53,2.13-16.47-2.23-6.25-5.16-6.94-6.41-7.63Z"/>
    <path class="cls-3" d="m91.45,558.48c-1.04-.58-4.78-.75-7.76,3.5s-3.02,8.44-2.58,10.75c.45,2.3,1.19,4.51,4.61,4.49,2.94-.02,5.9-2.35,7.58-5.6,1.48-2.87,2.23-6.39,1.39-9.07-1.07-3.39-2.59-3.72-3.24-4.08Z"/>
    <path class="cls-1" d="m91.57,567.31c-.03.34-.39.54-.69.39-1.3-.62-2.49-1.86-5.48-2.25-1.32-.17,3.98-5.39,5.34-3.13.98,1.63.94,3.87.84,4.99Z"/>
    <path class="cls-1" d="m83.77,567.93c.03-.34.39-.54.69-.39,1.3.62,2.49,1.86,5.48,2.25,1.32.17-3.98,5.39-5.34,3.13-.98-1.63-.94-3.87-.84-4.99Z"/>
  </g>
  <g>
    <path class="cls-33" d="m185.21,621.37c.22-.9-.28-1.81-1.12-2.19-1.95-.86-6.31-2.84-9.9-4.71-4.77-2.5-12.74-4.56-11.51-.58,1.22,3.98.89,11.08,6.01,13.92s11.69,1.44,14.62-2.72c1.17-1.67,1.7-2.87,1.9-3.72Z"/>
    <path class="cls-21" d="m185.25,622.17c.36-.93-.48-3.4-1.43-3.47-2.1-.16-.9,4.67.05,4.88s1.19-.9,1.39-1.41Z"/>
  </g>
  <g>
    <path class="cls-33" d="m202.65,591.61c-.68-.63-1.72-.64-2.46-.09-1.71,1.28-5.56,4.13-8.94,6.34-4.51,2.94-10.19,8.9-6.12,9.77s10.11,4.62,15.08,1.55c4.98-3.08,6.96-9.5,4.76-14.09-.88-1.84-1.68-2.88-2.32-3.48Z"/>
    <path class="cls-21" d="m203.37,591.96c-.63-.77-3.21-1.24-3.73-.44-1.16,1.76,3.64,3.06,4.29,2.34.65-.72-.21-1.47-.55-1.9Z"/>
  </g>
  <rect class="cls-19" x="61.79" y="303.98" width="4.32" height="90.01" transform="translate(-209.36 122.76) rotate(-40)"/>
  <g>
    <path class="cls-28" d="m430.86,413.71c-2.41,1.31-9.71,2.81-10.92-4.25-1.21-7.06,8.79-9.65,11.89-6.55s2.21,9.07-.97,10.8Z"/>
    <path class="cls-22" d="m424.74,405.43s1.19-.93,2.05-1.28c.61-.25.47-2.07-2.13-.94-2.04.88-2.71,2.2-1.83,2.75.97.62,1.91-.54,1.91-.54Z"/>
  </g>
  <g>
    <path class="cls-28" d="m353.8,140.91c-2.41,1.31-9.71,2.81-10.92-4.25-1.21-7.06,8.79-9.65,11.89-6.55s2.21,9.07-.97,10.8Z"/>
    <path class="cls-22" d="m347.69,132.63s1.19-.93,2.05-1.28c.61-.25.47-2.07-2.13-.94-2.04.88-2.71,2.2-1.83,2.75.97.62,1.91-.54,1.91-.54Z"/>
  </g>
  <g>
    <path class="cls-28" d="m234.29,307.51c-2.41,1.31-9.71,2.81-10.92-4.25s8.79-9.65,11.89-6.55c3.1,3.1,2.21,9.07-.97,10.8Z"/>
    <path class="cls-22" d="m228.18,299.23s1.19-.93,2.05-1.28c.61-.25.47-2.07-2.13-.94-2.04.88-2.71,2.2-1.83,2.75.97.62,1.91-.54,1.91-.54Z"/>
  </g>
  <g>
    <path class="cls-28" d="m56.72,181.25c-2.41,1.31-9.71,2.81-10.92-4.25s8.79-9.65,11.89-6.55,2.21,9.07-.97,10.8Z"/>
    <path class="cls-22" d="m50.61,172.97s1.19-.93,2.05-1.28c.61-.25.47-2.07-2.13-.94-2.04.88-2.71,2.2-1.83,2.75.97.62,1.91-.54,1.91-.54Z"/>
  </g>
  <path class="cls-34" d="m313.89,105.23c-1.5.2-5.16-.67-4.36-4.12.91-3.96,6.09-2.98,6.87-.62s-.53,4.47-2.51,4.74Z"/>
  <path class="cls-34" d="m244.14,264.35c-1.76.24-6.06-.79-5.13-4.84,1.07-4.66,7.16-3.5,8.08-.73.92,2.78-.63,5.26-2.95,5.57Z"/>
  <path class="cls-32" d="m223.12,61.3s-24.65-18.01-21.67-54.44l-4.9,1.17s-2.03,37.36,24.19,55.28l2.39-2.01Z"/>
  <path class="cls-32" d="m162,152.45s23.9-14.88,19.8-46.63l4.9,1.17s3.19,32.53-22.27,47.28l-2.44-1.82Z"/>
</svg>