<?xml version="1.0" encoding="UTF-8"?>
<svg id="_레이어_1" data-name="레이어 1" xmlns="http://www.w3.org/2000/svg" viewBox="0 0 20 20">
  <defs>
    <style>
      .cls-1 {
        fill: none;
      }

      .cls-1, .cls-2 {
        stroke-width: 0px;
      }

      .cls-2 {
        fill: #fff;
      }
    </style>
  </defs>
  <polygon class="cls-2" points="10.5 1.02 9.5 1.02 .94 9.08 .94 19.02 2.44 19.02 2.44 9.73 9.75 2.85 17 9.68 17 19.02 19.06 19.02 19.06 9.08 10.5 1.02"/>
  <g>
    <path class="cls-1" d="m12.97,13.02h-6.38c.8.86,1.93,1.4,3.19,1.4s2.39-.54,3.19-1.4Z"/>
    <path class="cls-2" d="m9.78,14.42c-1.26,0-2.39-.54-3.19-1.4h-1.51c.99,1.56,2.72,2.6,4.7,2.6s3.71-1.04,4.7-2.6h-1.51c-.8.86-1.93,1.4-3.19,1.4Z"/>
  </g>
</svg>