<?xml version="1.0" encoding="UTF-8"?>
<svg id="_레이어_1" data-name="레이어 1" xmlns="http://www.w3.org/2000/svg" viewBox="0 0 20 20">
  <defs>
    <style>
      .cls-1 {
        fill: #fff;
        stroke-width: 0px;
      }
    </style>
  </defs>
  <path class="cls-1" d="m10.19,19.07L1.62,10.49C-.27,8.6-.27,5.52,1.62,3.63c1.89-1.89,4.97-1.89,6.85,0l-.95.95c-1.36-1.36-3.58-1.36-4.95,0-1.36,1.36-1.36,3.58,0,4.95l8.57,8.59-.96.95Z"/>
  <path class="cls-1" d="m10.23,19.02l-1.59-1.59,8.22-8.22c1.19-1.19,1.19-3.12,0-4.31-1.19-1.19-3.12-1.19-4.31,0l-2.36,2.36-1.59-1.59,2.36-2.36c2.06-2.06,5.42-2.07,7.49,0,2.07,2.07,2.07,5.43,0,7.49l-8.22,8.22Z"/>
</svg>