<?xml version="1.0" encoding="UTF-8"?>
<svg id="_레이어_1" data-name="레이어 1" xmlns="http://www.w3.org/2000/svg" viewBox="0 0 333.53 95.11">
  <defs>
    <style>
      .cls-1 {
        fill: #fff;
        stroke-width: 0px;
      }
    </style>
  </defs>
  <path class="cls-1" d="m3.46,2.72h21.95c2.43,0,4.71.46,6.84,1.38,2.13.92,4,2.17,5.61,3.74,1.61,1.57,2.87,3.43,3.79,5.56.92,2.13,1.38,4.41,1.38,6.84,0,3.15-.77,6.04-2.31,8.66-1.54,2.63-3.56,4.72-6.05,6.3,2.23.26,4.3.92,6.2,1.97,1.9,1.05,3.56,2.36,4.97,3.94,1.41,1.57,2.53,3.38,3.35,5.41.82,2.04,1.23,4.2,1.23,6.5,0,2.5-.48,4.82-1.43,6.99-.95,2.17-2.23,4.05-3.84,5.66-1.61,1.61-3.51,2.89-5.71,3.84-2.2.95-4.54,1.43-7.04,1.43H3.46V2.72Zm6.79,2.76v29.63h12.11c2.03,0,3.95-.39,5.76-1.18,1.8-.79,3.36-1.85,4.68-3.2,1.31-1.34,2.36-2.92,3.15-4.72.79-1.8,1.18-3.72,1.18-5.76s-.39-3.94-1.18-5.71c-.79-1.77-1.84-3.33-3.15-4.68-1.31-1.34-2.87-2.41-4.68-3.2-1.81-.79-3.73-1.18-5.76-1.18h-12.11Zm0,32.48v29.82h18.21c2.17,0,4.23-.36,6.2-1.08,1.97-.72,3.67-1.74,5.12-3.05,1.44-1.31,2.59-2.87,3.44-4.68.85-1.8,1.28-3.79,1.28-5.96s-.43-4.17-1.28-6c-.85-1.84-2-3.43-3.44-4.77-1.44-1.34-3.15-2.39-5.12-3.15-1.97-.75-4.04-1.13-6.2-1.13H10.25Z"/>
  <path class="cls-1" d="m109.46,70.83h-8.51c-3.87-9.91-18.48-47.58-22.28-57.48l-23.63,57.48h-2.95L79.93,2.62h3.05c4.4,11.42,8.79,22.79,13.19,34.11,4.4,11.32,8.82,22.69,13.29,34.11Z"/>
  <path class="cls-1" d="m148.08,15.34c-.15-.59-2.09-4.02-5.2-6.45-1.05-.82-3.86-3.5-10.78-3.27-2.43.08-11.25,2.04-11.43,9.32-.02.98.54,4.27,2.68,6.8,3.77,4.46,11.9,7.6,15.97,9.89,4,2.1,7.9,4.66,10.28,7.31,2.64,2.94,3.76,5.6,4.53,8.51.76,2.92.82,5.81.16,8.66-.65,2.85-1.93,5.4-3.82,7.63-1.89,2.23-7.03,7.51-17.56,7.28-1.67-.04-6.79-.43-11.72-3.25-5.81-3.32-9.29-8.86-10.52-11.61h3.27c0,.33,2.06,4.02,4.91,6.45,6.04,5.15,10.72,5.59,13.63,5.66,10.29.24,14.58-6.75,15.45-9.51.87-2.76.62-5.86-.36-9.04-.98-3.18-3.92-8.69-14.53-13.89-2.52-1.23-11.71-6.45-13.46-8.06-1.74-1.61-6.66-5.48-5.4-12.82,1.8-10.52,13.74-11.96,16.28-12.13,5.51-.36,9.05,1.15,10.51,1.8,4.38,1.95,6.38,4.53,7.11,5.98v4.75Z"/>
  <path class="cls-1" d="m168.37,50.95v19.98h-6.79V2.62h6.79v43.6L199.67,2.62h3.44l-34.75,48.33Z"/>
  <path class="cls-1" d="m212.57,2.62h35.63v2.76h-29.92v30.02h23.12v2.76h-23.12v30.02h29.92v2.76h-36.71V2.62h1.08Z"/>
  <path class="cls-1" d="m285.43,2.62h22.45v2.76h-22.45v65.53h-6.79V5.37h-22.45v-2.76h29.25Z"/>
  <path class="cls-1" d="m177.51,36.17c9.2,30.58,37.62,52.92,71.17,52.92s62.88-23.08,71.6-54.43h9.8c-11.94,33.28-41.55,57.83-81.39,57.83-34.34,0-62.82-22.39-73.06-53.34"/>
</svg>