<?xml version="1.0" encoding="UTF-8"?>
<svg id="_레이어_1" data-name="레이어 1" xmlns="http://www.w3.org/2000/svg" viewBox="0 0 266.04 73.21">
  <defs>
    <style>
      .cls-1 {
        stroke-width: 0px;
      }
    </style>
  </defs>
  <path class="cls-1" d="m0,.08h17.88c1.98,0,3.83.37,5.57,1.12,1.74.75,3.26,1.76,4.57,3.05,1.31,1.28,2.34,2.79,3.09,4.53.75,1.74,1.12,3.6,1.12,5.57,0,2.57-.63,4.92-1.88,7.06-1.26,2.14-2.9,3.85-4.93,5.13,1.82.21,3.5.75,5.05,1.6,1.55.86,2.9,1.92,4.05,3.21,1.15,1.28,2.06,2.75,2.73,4.41.67,1.66,1,3.42,1,5.29,0,2.03-.39,3.93-1.16,5.69-.78,1.76-1.82,3.3-3.13,4.61-1.31,1.31-2.86,2.35-4.65,3.13-1.79.78-3.7,1.16-5.73,1.16H0V.08Zm5.53,2.24v24.13h9.86c1.66,0,3.22-.32,4.69-.96,1.47-.64,2.74-1.51,3.81-2.61,1.07-1.1,1.92-2.38,2.57-3.85.64-1.47.96-3.03.96-4.69s-.32-3.21-.96-4.65c-.64-1.44-1.5-2.71-2.57-3.81-1.07-1.1-2.34-1.96-3.81-2.61-1.47-.64-3.03-.96-4.69-.96H5.53Zm0,26.46v24.29h14.83c1.76,0,3.45-.29,5.05-.88,1.6-.59,2.99-1.42,4.17-2.49,1.18-1.07,2.11-2.34,2.81-3.81.69-1.47,1.04-3.09,1.04-4.85s-.35-3.39-1.04-4.89c-.7-1.5-1.63-2.79-2.81-3.89-1.18-1.09-2.57-1.95-4.17-2.57-1.6-.61-3.29-.92-5.05-.92H5.53Z"/>
  <path class="cls-1" d="m86.34,55.56h-6.93c-3.15-8.07-15.05-38.75-18.15-46.82l-19.25,46.82h-2.41L62.29,0h2.49c3.58,9.3,7.16,18.56,10.74,27.78,3.58,9.22,7.19,18.48,10.82,27.78Z"/>
  <path class="cls-1" d="m117.8,10.37c-.12-.48-1.7-3.27-4.24-5.25-.86-.67-3.15-2.85-8.78-2.67-1.98.06-9.17,1.67-9.31,7.59-.02.8.44,3.48,2.18,5.54,3.07,3.63,9.69,6.19,13.01,8.06,3.26,1.71,6.44,3.79,8.37,5.95,2.15,2.39,3.06,4.56,3.69,6.94.62,2.38.67,4.73.13,7.06-.53,2.33-1.57,4.4-3.11,6.21-1.54,1.82-5.72,6.12-14.3,5.93-1.36-.03-5.53-.35-9.55-2.65-4.73-2.7-7.57-7.22-8.57-9.46h2.66c0,.27,1.68,3.28,4,5.25,4.92,4.19,8.73,4.56,11.1,4.61,8.39.19,11.87-5.5,12.58-7.74.71-2.25.51-4.77-.29-7.37-.8-2.59-3.19-7.08-11.84-11.31-2.05-1-9.54-5.26-10.96-6.57-1.42-1.31-5.43-4.46-4.4-10.44C91.65,1.47,101.37.3,103.45.16c4.49-.29,7.38.94,8.56,1.47,3.57,1.59,5.2,3.69,5.79,4.87v3.87Z"/>
  <path class="cls-1" d="m134.33,39.37v16.28h-5.53V0h5.53v35.52L159.82,0h2.81l-28.3,39.37Z"/>
  <path class="cls-1" d="m170.33,0h29.02v2.25h-24.37v24.45h18.83v2.24h-18.83v24.45h24.37v2.25h-29.91V0h.88Z"/>
  <path class="cls-1" d="m229.68,0h18.29v2.25h-18.29v53.38h-5.53V2.25h-18.29V0h23.82Z"/>
  <path class="cls-1" d="m141.77,27.33c7.5,24.91,30.65,43.11,57.97,43.11s51.22-18.8,58.32-44.33h7.98c-9.73,27.11-33.84,47.11-66.3,47.11-27.97,0-51.17-18.24-59.51-43.45"/>
</svg>