<?xml version="1.0" encoding="UTF-8"?>
<svg id="_레이어_1" data-name="레이어 1" xmlns="http://www.w3.org/2000/svg" viewBox="0 0 20 20">
  <defs>
    <style>
      .cls-1 {
        fill: #fff;
        stroke-width: 0px;
      }
    </style>
  </defs>
  <path class="cls-1" d="m10,1.52c1.93,0,3.5,1.57,3.5,3.5s-1.57,3.5-3.5,3.5-3.5-1.57-3.5-3.5,1.57-3.5,3.5-3.5M10,.02C7.24.02,5,2.26,5,5.02s2.24,5,5,5,5-2.24,5-5S12.76.02,10,.02h0Z"/>
  <path class="cls-1" d="m11.1,9.11c3.34.53,5.9,3.43,5.9,6.91,0,.34-.02.67-.07,1l2.07-1c0-3.89-2.47-7.21-5.93-8.46l-1.97,1.55Z"/>
  <path class="cls-1" d="m17.79,15.78c-2.14,1.71-4.84,2.74-7.79,2.74s-5.65-1.03-7.79-2.74c.07-2.33,1.18-4.4,2.87-5.78-.29-.28-.54-.59-.78-.92-1.7,1.4-2.89,3.41-3.21,5.7-.06.41-.1.82-.1,1.24,0,.25.02.5.04.75.43.36.89.69,1.37,1,2.19,1.42,4.79,2.25,7.59,2.25s5.41-.83,7.59-2.25c.48-.31.93-.64,1.37-1,.02-.25.04-.5.04-.75l-1.21-.24Z"/>
</svg>