<?xml version="1.0" encoding="UTF-8"?>
<svg id="_레이어_1" data-name="레이어 1" xmlns="http://www.w3.org/2000/svg" viewBox="0 0 20 20">
  <defs>
    <style>
      .cls-1 {
        stroke-width: 0px;
      }
    </style>
  </defs>
  <path class="cls-1" d="m20,14.11c-.64.39-1.31.74-1.98,1.05l-.94-1.46v-4.82c0-3.69-2.65-6.75-6.08-7.25V-.01s-2,0-2,0v3.57h1c2.8,0,5.08,2.39,5.08,5.32v5.4l1.04,1.63c-1.95.66-3.99,1-6.07,1-2.2,0-4.36-.38-6.4-1.11l1.02-1.6v-5.33c0-1.61.67-3.15,1.84-4.21l-1.01-1.11c-1.48,1.34-2.33,3.28-2.33,5.32v4.89l-.94,1.46C1.47,14.89.72,14.49,0,14.05v1.38c.96.55,1.96,1.01,2.99,1.4h0s0,0,0,0c1.34.5,2.73.86,4.15,1.07.38,1.22,1.51,2.11,2.85,2.11s2.46-.88,2.85-2.09c1.35-.19,2.66-.52,3.94-.97v.02s.08-.05.08-.05c1.08-.39,2.13-.86,3.13-1.43v-1.38Z"/>
</svg>