<?xml version="1.0" encoding="UTF-8"?>
<svg id="_레이어_1" data-name="레이어 1" xmlns="http://www.w3.org/2000/svg" viewBox="0 0 20 20">
  <defs>
    <style>
      .cls-1 {
        fill: #fff;
        stroke-width: 0px;
      }
    </style>
  </defs>
  <g>
    <path class="cls-1" d="m5.44,11.65l1.19-1.27c.94-1,1.76-1.9,1.76-2.71s-.46-1.08-1.31-1.08c-.43,0-1,.21-1.38.41l-.18-1.01c.48-.27,1.18-.49,1.98-.49,1.58,0,2.36.71,2.36,1.97s-1.19,2.46-1.89,3.19l-.71.72h2.62v1.09h-4.44v-.82Z"/>
    <path class="cls-1" d="m13.48,11.25h-3.09v-.76l3.5-4.91h.93v4.65h1.04v1.02h-1.04v1.36h-1.34v-1.36Zm0-1.02v-2.31l-1.65,2.31h1.65Z"/>
  </g>
  <g>
    <polygon class="cls-1" points="7.91 15.26 8.97 15.26 10 14.23 8.49 14.23 6.71 16.01 8.49 17.79 10 17.79 8.97 16.76 7.91 16.76 7.91 15.26"/>
    <path class="cls-1" d="m12.14,1.04h-3.33C4.47,1.04.94,4.56.94,8.9v10.1l4.06-2.03v-1.68l-2.56,1.28v-7.68c0-3.51,2.85-6.36,6.36-6.36h3.33c3.51,0,6.36,2.85,6.36,6.36s-2.85,6.36-6.36,6.36h-4.29v1.5h4.29c4.33,0,7.86-3.53,7.86-7.86s-3.53-7.86-7.86-7.86Z"/>
  </g>
</svg>