<?xml version="1.0" encoding="UTF-8"?>
<svg id="_레이어_1" data-name="레이어 1" xmlns="http://www.w3.org/2000/svg" viewBox="0 0 20 20">
  <defs>
    <style>
      .cls-1 {
        fill: none;
        stroke: #000;
        stroke-miterlimit: 10;
        stroke-width: 1.2px;
      }

      .cls-2 {
        stroke-width: 0px;
      }
    </style>
  </defs>
  <path class="cls-2" d="m10,8.2c.99,0,1.8.81,1.8,1.8s-.81,1.8-1.8,1.8-1.8-.81-1.8-1.8.81-1.8,1.8-1.8m0-1.2c-1.66,0-3,1.34-3,3s1.34,3,3,3,3-1.34,3-3-1.34-3-3-3h0Z"/>
  <path class="cls-1" d="m2,12.45c.88-.47,1.49-1.39,1.49-2.45s-.61-1.98-1.49-2.45l1.87-3.25c.85.53,1.95.6,2.87.06.93-.53,1.42-1.52,1.38-2.52h3.75c-.03,1,.46,1.99,1.38,2.52.92.53,2.02.47,2.87-.06"/>
  <path class="cls-1" d="m18,7.55c-.88.47-1.49,1.39-1.49,2.45s.61,1.98,1.49,2.45l-1.87,3.25c-.85-.53-1.95-.6-2.87-.06-.93.53-1.42,1.52-1.38,2.52h-3.75c.03-1-.46-1.99-1.38-2.52-.92-.53-2.02-.47-2.87.06"/>
</svg>